Fita_Poluustav.ufo
<glyph name="G" format="1">
  <advance width="1257"/>
  <unicode hex="002A"/>
  <outline>
    <contour>
      <point x="555" y="1980" type="line"/>
      <point x="494" y="1991"/>
      <point x="420" y="2027" type="qcurve"/>
      <point x="387" y="2048"/>
      <point x="352" y="2085" type="qcurve" smooth="yes"/>
      <point x="317" y="2122"/>
      <point x="293" y="2183" type="qcurve"/>
      <point x="268" y="2175"/>
      <point x="254" y="2165" type="qcurve"/>
      <point x="244" y="2122"/>
      <point x="244" y="2066" type="qcurve"/>
      <point x="246" y="2011"/>
      <point x="248" y="1915" type="qcurve"/>
      <point x="244" y="1823"/>
      <point x="244" y="1761" type="qcurve"/>
      <point x="240" y="1669"/>
      <point x="291" y="1636" type="qcurve"/>
      <point x="315" y="1698"/>
      <point x="350" y="1732" type="qcurve"/>
      <point x="383" y="1769"/>
      <point x="420" y="1788" type="qcurve" smooth="yes"/>
      <point x="457" y="1808"/>
      <point x="494" y="1816" type="qcurve" smooth="yes"/>
      <point x="528" y="1823"/>
      <point x="555" y="1825" type="qcurve"/>
      <point x="547" y="1763"/>
      <point x="512" y="1694" type="qcurve"/>
      <point x="491" y="1661"/>
      <point x="455" y="1630" type="qcurve"/>
      <point x="416" y="1599"/>
      <point x="354" y="1573" type="qcurve"/>
      <point x="362" y="1548"/>
      <point x="373" y="1532" type="qcurve"/>
      <point x="403" y="1528"/>
      <point x="438" y="1528" type="qcurve"/>
      <point x="520" y="1532"/>
      <point x="614" y="1534" type="qcurve"/>
      <point x="666" y="1534"/>
      <point x="717" y="1532" type="qcurve"/>
      <point x="768" y="1528"/>
      <point x="803" y="1528" type="qcurve" smooth="yes"/>
      <point x="876" y="1526"/>
      <point x="901" y="1571" type="qcurve"/>
      <point x="840" y="1599"/>
      <point x="803" y="1632" type="qcurve" smooth="yes"/>
      <point x="766" y="1665"/>
      <point x="745" y="1702" type="qcurve"/>
      <point x="727" y="1739"/>
      <point x="719" y="1773" type="qcurve" smooth="yes"/>
      <point x="711" y="1806"/>
      <point x="704" y="1831" type="qcurve"/>
      <point x="735" y="1823"/>
      <point x="770" y="1814" type="qcurve" smooth="yes"/>
      <point x="805" y="1804"/>
      <point x="842" y="1784" type="qcurve" smooth="yes"/>
      <point x="879" y="1763"/>
      <point x="911" y="1726" type="qcurve"/>
      <point x="942" y="1687"/>
      <point x="967" y="1622" type="qcurve"/>
      <point x="993" y="1630"/>
      <point x="1005" y="1640" type="qcurve"/>
      <point x="1014" y="1675"/>
      <point x="1014" y="1716" type="qcurve"/>
      <point x="1008" y="1800"/>
      <point x="1005" y="1894" type="qcurve"/>
      <point x="1010" y="1986"/>
      <point x="1014" y="2068" type="qcurve"/>
      <point x="1014" y="2107"/>
      <point x="1008" y="2128" type="qcurve"/>
      <point x="999" y="2148"/>
      <point x="969" y="2169" type="qcurve"/>
      <point x="946" y="2109"/>
      <point x="915" y="2072" type="qcurve"/>
      <point x="883" y="2036"/>
      <point x="848" y="2017" type="qcurve" smooth="yes"/>
      <point x="815" y="1999"/>
      <point x="780" y="1993" type="qcurve"/>
      <point x="745" y="1984"/>
      <point x="717" y="1980" type="qcurve"/>
      <point x="725" y="2044"/>
      <point x="764" y="2117" type="qcurve" smooth="yes"/>
      <point x="801" y="2187"/>
      <point x="922" y="2238" type="qcurve"/>
      <point x="913" y="2265"/>
      <point x="903" y="2277" type="qcurve"/>
      <point x="860" y="2287"/>
      <point x="807" y="2287" type="qcurve"/>
      <point x="733" y="2283"/>
      <point x="633" y="2281" type="qcurve"/>
      <point x="551" y="2285"/>
      <point x="477" y="2287" type="qcurve"/>
      <point x="438" y="2287"/>
      <point x="414" y="2281" type="qcurve"/>
      <point x="387" y="2273"/>
      <point x="365" y="2240" type="qcurve"/>
      <point x="428" y="2216"/>
      <point x="465" y="2185" type="qcurve"/>
      <point x="502" y="2152"/>
      <point x="520" y="2115" type="qcurve"/>
      <point x="539" y="2081"/>
      <point x="547" y="2046" type="qcurve"/>
      <point x="553" y="2011"/>
      <point x="555" y="1980" type="qcurve"/>
    </contour>
  </outline>
</glyph>
<glyph name="L" format="1">
  <advance width="1264"/>
  <unicode hex="002F"/>
  <outline>
    <contour>
      <point x="1118" y="1534" type="line"/>
      <point x="1057" y="1556"/>
      <point x="1018" y="1603" type="qcurve"/>
      <point x="973" y="1575" type="line"/>
      <point x="897" y="1415"/>
      <point x="729" y="1030" type="qcurve" smooth="yes"/>
      <point x="561" y="645"/>
      <point x="139" y="-143" type="qcurve"/>
      <point x="174" y="-158" type="line"/>
      <point x="268" y="-111" type="line"/>
      <point x="1124" y="1517" type="line"/>
    </contour>
  </outline>
</glyph>
<glyph name="X" format="1">
  <advance width="1077"/>
  <unicode hex="003B"/>
  <outline>
    <contour>
      <point x="307" y="2" type="line"/>
      <point x="354" y="31"/>
      <point x="399" y="31" type="qcurve" smooth="yes"/>
      <point x="510" y="29"/>
      <point x="514" y="-111" type="qcurve"/>
      <point x="514" y="-201"/>
      <point x="412" y="-360" type="qcurve"/>
      <point x="444" y="-389" type="line"/>
      <point x="747" y="-260"/>
      <point x="754" y="2" type="qcurve"/>
      <point x="752" y="106"/>
      <point x="678" y="160" type="qcurve" smooth="yes"/>
      <point x="643" y="186"/>
      <point x="600" y="199" type="qcurve" smooth="yes"/>
      <point x="557" y="211"/>
      <point x="512" y="211" type="qcurve" smooth="yes"/>
      <point x="418" y="209"/>
      <point x="352" y="174" type="qcurve"/>
      <point x="289" y="139"/>
      <point x="248" y="84" type="qcurve"/>
    </contour>
    <contour>
      <point x="545" y="979" type="line"/>
      <point x="358" y="979"/>
      <point x="356" y="793" type="qcurve" smooth="yes"/>
      <point x="354" y="610"/>
      <point x="537" y="612" type="qcurve" smooth="yes"/>
      <point x="721" y="614"/>
      <point x="723" y="795" type="qcurve"/>
      <point x="719" y="977"/>
      <point x="545" y="979" type="qcurve"/>
    </contour>
  </outline>
</glyph>
<glyph name="grave" format="1">
  <advance width="1427"/>
  <unicode hex="0043"/>
  <outline>
    <contour>
      <point x="1012" y="1022" type="line"/>
      <point x="1390" y="1096" type="line"/>
      <point x="1388" y="1145"/>
      <point x="1354" y="1204" type="qcurve"/>
      <point x="1315" y="1264"/>
      <point x="1255" y="1319" type="qcurve"/>
      <point x="1196" y="1376"/>
      <point x="1128" y="1413" type="qcurve"/>
      <point x="1061" y="1448"/>
      <point x="997" y="1450" type="qcurve"/>
      <point x="836" y="1450"/>
      <point x="711" y="1421" type="qcurve"/>
      <point x="588" y="1388"/>
      <point x="444" y="1321" type="qcurve"/>
      <point x="334" y="1272"/>
      <point x="231" y="1092" type="qcurve"/>
      <point x="123" y="913"/>
      <point x="119" y="649" type="qcurve"/>
      <point x="121" y="346"/>
      <point x="268" y="137" type="qcurve"/>
      <point x="414" y="-76"/>
      <point x="647" y="-82" type="qcurve"/>
      <point x="727" y="-80"/>
      <point x="821" y="-41" type="qcurve"/>
      <point x="915" y="-4"/>
      <point x="1001" y="55" type="qcurve"/>
      <point x="1085" y="115"/>
      <point x="1143" y="180" type="qcurve"/>
      <point x="1196" y="246"/>
      <point x="1198" y="305" type="qcurve"/>
      <point x="1198" y="350"/>
      <point x="1159" y="381" type="qcurve"/>
      <point x="1122" y="379"/>
      <point x="1079" y="344" type="qcurve"/>
      <point x="1036" y="305"/>
      <point x="985" y="258" type="qcurve"/>
      <point x="936" y="211"/>
      <point x="879" y="172" type="qcurve"/>
      <point x="821" y="131"/>
      <point x="756" y="131" type="qcurve"/>
      <point x="655" y="133"/>
      <point x="592" y="213" type="qcurve"/>
      <point x="528" y="289"/>
      <point x="494" y="399" type="qcurve"/>
      <point x="461" y="510"/>
      <point x="448" y="614" type="qcurve"/>
      <point x="436" y="719"/>
      <point x="436" y="780" type="qcurve" smooth="yes"/>
      <point x="436" y="825"/>
      <point x="448" y="905" type="qcurve"/>
      <point x="457" y="983"/>
      <point x="487" y="1065" type="qcurve"/>
      <point x="516" y="1149"/>
      <point x="573" y="1206" type="qcurve" smooth="yes"/>
      <point x="629" y="1261"/>
      <point x="717" y="1264" type="qcurve"/>
      <point x="836" y="1261"/>
      <point x="907" y="1194" type="qcurve"/>
      <point x="977" y="1124"/>
      <point x="1012" y="1022" type="qcurve"/>
    </contour>
  </outline>
</glyph>
<glyph name="j" format="1">
  <advance width="2068"/>
  <unicode hex="004D"/>
  <outline>
    <contour>
      <point x="940" y="1429" type="line"/>
      <point x="627" y="1395" type="line"/>
      <point x="596" y="1360" type="line"/>
      <point x="600" y="1323"/>
      <point x="600" y="1282" type="qcurve" smooth="yes"/>
      <point x="600" y="1233"/>
      <point x="586" y="1175" type="qcurve"/>
      <point x="569" y="1118"/>
      <point x="514" y="1040" type="qcurve" smooth="yes"/>
      <point x="240" y="657"/>
      <point x="160" y="451" type="qcurve"/>
      <point x="82" y="244"/>
      <point x="86" y="74" type="qcurve"/>
      <point x="86" y="31"/>
      <point x="92" y="-27" type="qcurve"/>
      <point x="471" y="0" type="line"/>
      <point x="467" y="66" type="line"/>
      <point x="385" y="186"/>
      <point x="385" y="342" type="qcurve"/>
      <point x="383" y="467"/>
      <point x="420" y="590" type="qcurve"/>
      <point x="459" y="713"/>
      <point x="596" y="907" type="qcurve"/>
      <point x="616" y="940"/>
      <point x="633" y="940" type="qcurve" smooth="yes"/>
      <point x="647" y="940"/>
      <point x="659" y="919" type="qcurve"/>
      <point x="672" y="899"/>
      <point x="684" y="858" type="qcurve"/>
      <point x="696" y="821"/>
      <point x="709" y="770" type="qcurve"/>
      <point x="721" y="717"/>
      <point x="731" y="655" type="qcurve"/>
      <point x="778" y="393"/>
      <point x="780" y="164" type="qcurve" smooth="yes"/>
      <point x="780" y="70"/>
      <point x="770" y="-27" type="qcurve"/>
      <point x="1155" y="0" type="line"/>
      <point x="1173" y="266"/>
      <point x="1249" y="465" type="qcurve"/>
      <point x="1325" y="659"/>
      <point x="1386" y="876" type="qcurve"/>
      <point x="1409" y="876" type="line"/>
      <point x="1433" y="758"/>
      <point x="1474" y="524" type="qcurve"/>
      <point x="1513" y="293"/>
      <point x="1591" y="-27" type="qcurve"/>
      <point x="1974" y="-2" type="line"/>
      <point x="1788" y="653"/>
      <point x="1704" y="1429" type="qcurve"/>
      <point x="1317" y="1409" type="line"/>
      <point x="1343" y="1323"/>
      <point x="1345" y="1167" type="qcurve" smooth="yes"/>
      <point x="1345" y="1096"/>
      <point x="1333" y="1024" type="qcurve"/>
      <point x="1298" y="850"/>
      <point x="1237" y="717" type="qcurve" smooth="yes"/>
      <point x="1208" y="655"/>
      <point x="1184" y="616" type="qcurve"/>
      <point x="1155" y="577"/>
      <point x="1139" y="577" type="qcurve" smooth="yes"/>
      <point x="1120" y="577"/>
      <point x="1104" y="610" type="qcurve"/>
      <point x="1085" y="639"/>
      <point x="1069" y="692" type="qcurve" smooth="yes"/>
      <point x="1036" y="801"/>
      <point x="1012" y="950" type="qcurve"/>
      <point x="989" y="1104"/>
      <point x="971" y="1237" type="qcurve" smooth="yes"/>
      <point x="952" y="1372"/>
      <point x="940" y="1429" type="qcurve"/>
    </contour>
  </outline>
</glyph>
<glyph name="asciitilde" format="1">
  <advance width="897"/>
  <unicode hex="0061"/>
  <outline>
    <contour>
      <point x="520" y="1001" type="line"/>
      <point x="281" y="1001" type="line"/>
      <point x="266" y="969" type="line"/>
      <point x="301" y="936"/>
      <point x="319" y="879" type="qcurve"/>
      <point x="336" y="819"/>
      <point x="336" y="754" type="qcurve"/>
      <point x="334" y="711"/>
      <point x="295" y="641" type="qcurve" smooth="yes"/>
      <point x="256" y="571"/>
      <point x="205" y="487" type="qcurve" smooth="yes"/>
      <point x="154" y="403"/>
      <point x="115" y="313" type="qcurve"/>
      <point x="74" y="223"/>
      <point x="72" y="137" type="qcurve"/>
      <point x="72" y="63"/>
      <point x="98" y="20" type="qcurve" smooth="yes"/>
      <point x="123" y="-23"/>
      <point x="158" y="-25" type="qcurve"/>
      <point x="250" y="-20"/>
      <point x="317" y="94" type="qcurve" smooth="yes"/>
      <point x="383" y="207"/>
      <point x="453" y="360" type="qcurve"/>
      <point x="453" y="360" type="line"/>
      <point x="555" y="14" type="line"/>
      <point x="563" y="-4"/>
      <point x="582" y="-12" type="qcurve"/>
      <point x="598" y="-25"/>
      <point x="608" y="-25" type="qcurve" smooth="yes"/>
      <point x="629" y="-23"/>
      <point x="661" y="-16" type="qcurve"/>
      <point x="795" y="0" type="line"/>
      <point x="827" y="6"/>
      <point x="838" y="16" type="qcurve"/>
      <point x="846" y="27"/>
      <point x="846" y="37" type="qcurve" smooth="yes"/>
      <point x="846" y="61"/>
      <point x="829" y="98" type="qcurve" smooth="yes"/>
      <point x="811" y="135"/>
      <point x="788" y="188" type="qcurve"/>
      <point x="647" y="555"/>
      <point x="608" y="874" type="qcurve"/>
      <point x="604" y="934"/>
      <point x="586" y="969" type="qcurve" smooth="yes"/>
      <point x="569" y="1001"/>
      <point x="520" y="1001" type="qcurve"/>
    </contour>
    <contour>
      <point x="387" y="608" type="line"/>
      <point x="424" y="532"/>
      <point x="426" y="471" type="qcurve"/>
      <point x="424" y="414"/>
      <point x="391" y="346" type="qcurve" smooth="yes"/>
      <point x="377" y="315"/>
      <point x="354" y="295" type="qcurve"/>
      <point x="332" y="272"/>
      <point x="307" y="272" type="qcurve"/>
      <point x="291" y="274"/>
      <point x="291" y="334" type="qcurve" smooth="yes"/>
      <point x="291" y="416"/>
      <point x="317" y="510" type="qcurve"/>
      <point x="330" y="553"/>
      <point x="348" y="582" type="qcurve"/>
      <point x="367" y="608"/>
      <point x="387" y="608" type="qcurve"/>
    </contour>
  </outline>
</glyph>
<glyph name="Aring" format="1">
  <advance width="694"/>
  <unicode hex="0063"/>
  <outline>
    <contour>
      <point x="555" y="944" type="line" smooth="yes"/>
      <point x="555" y="983"/>
      <point x="532" y="1001" type="qcurve"/>
      <point x="508" y="1018"/>
      <point x="444" y="1018" type="qcurve" smooth="yes"/>
      <point x="279" y="1016"/>
      <point x="195" y="897" type="qcurve"/>
      <point x="109" y="782"/>
      <point x="109" y="610" type="qcurve" smooth="yes"/>
      <point x="109" y="522"/>
      <point x="145" y="416" type="qcurve"/>
      <point x="178" y="309"/>
      <point x="229" y="209" type="qcurve" smooth="yes"/>
      <point x="281" y="109"/>
      <point x="336" y="45" type="qcurve"/>
      <point x="389" y="-23"/>
      <point x="430" y="-25" type="qcurve"/>
      <point x="453" y="-25"/>
      <point x="477" y="-8" type="qcurve"/>
      <point x="502" y="4"/>
      <point x="524" y="23" type="qcurve"/>
      <point x="547" y="41"/>
      <point x="563" y="59" type="qcurve"/>
      <point x="575" y="76"/>
      <point x="575" y="82" type="qcurve" smooth="yes"/>
      <point x="594" y="242"/>
      <point x="598" y="291" type="qcurve"/>
      <point x="600" y="338" type="line"/>
      <point x="600" y="383"/>
      <point x="575" y="383" type="qcurve"/>
      <point x="559" y="381"/>
      <point x="520" y="358" type="qcurve" smooth="yes"/>
      <point x="502" y="348"/>
      <point x="483" y="342" type="qcurve" smooth="yes"/>
      <point x="461" y="334"/>
      <point x="442" y="334" type="qcurve" smooth="yes"/>
      <point x="393" y="336"/>
      <point x="367" y="395" type="qcurve"/>
      <point x="338" y="451"/>
      <point x="338" y="516" type="qcurve"/>
      <point x="336" y="551"/>
      <point x="367" y="602" type="qcurve" smooth="yes"/>
      <point x="397" y="653"/>
      <point x="498" y="694" type="qcurve"/>
      <point x="553" y="715"/>
      <point x="555" y="799" type="qcurve"/>
    </contour>
  </outline>
</glyph>
<glyph name="Ccedilla" format="1">
  <advance width="1159"/>
  <unicode hex="0064"/>
  <outline>
    <contour>
      <point x="332" y="1429" type="line"/>
      <point x="215" y="1360"/>
      <point x="141" y="1270" type="qcurve"/>
      <point x="141" y="1233"/>
      <point x="186" y="1188" type="qcurve"/>
      <point x="229" y="1143"/>
      <point x="289" y="1096" type="qcurve"/>
      <point x="350" y="1053"/>
      <point x="408" y="1014" type="qcurve" smooth="yes"/>
      <point x="463" y="977"/>
      <point x="491" y="950" type="qcurve"/>
      <point x="139" y="813"/>
      <point x="133" y="418" type="qcurve"/>
      <point x="133" y="332"/>
      <point x="221" y="162" type="qcurve"/>
      <point x="264" y="86"/>
      <point x="322" y="31" type="qcurve"/>
      <point x="381" y="-27"/>
      <point x="451" y="-29" type="qcurve"/>
      <point x="498" y="-29"/>
      <point x="549" y="-8" type="qcurve" smooth="yes"/>
      <point x="780" y="92" type="line"/>
      <point x="852" y="125"/>
      <point x="911" y="186" type="qcurve" smooth="yes"/>
      <point x="969" y="246"/>
      <point x="1003" y="309" type="qcurve" smooth="yes"/>
      <point x="1042" y="379"/>
      <point x="1057" y="444" type="qcurve"/>
      <point x="1067" y="510"/>
      <point x="1067" y="592" type="qcurve"/>
      <point x="1065" y="737"/>
      <point x="995" y="846" type="qcurve"/>
      <point x="922" y="952"/>
      <point x="809" y="1038" type="qcurve"/>
      <point x="698" y="1126"/>
      <point x="580" y="1214" type="qcurve"/>
      <point x="459" y="1300"/>
      <point x="360" y="1403" type="qcurve"/>
      <point x="356" y="1429" type="line"/>
    </contour>
    <contour>
      <point x="684" y="168" type="line"/>
      <point x="561" y="168"/>
      <point x="467" y="283" type="qcurve"/>
      <point x="367" y="393"/>
      <point x="365" y="580" type="qcurve"/>
      <point x="365" y="680"/>
      <point x="393" y="760" type="qcurve"/>
      <point x="408" y="797"/>
      <point x="432" y="819" type="qcurve"/>
      <point x="455" y="842"/>
      <point x="487" y="842" type="qcurve" smooth="yes"/>
      <point x="811" y="836"/>
      <point x="817" y="393" type="qcurve"/>
      <point x="817" y="315"/>
      <point x="786" y="246" type="qcurve"/>
      <point x="770" y="213"/>
      <point x="745" y="190" type="qcurve" smooth="yes"/>
      <point x="721" y="168"/>
      <point x="684" y="168" type="qcurve"/>
    </contour>
  </outline>
</glyph>
<glyph name="agrave" format="1">
  <advance width="672"/>
  <unicode hex="006A"/>
  <outline>
    <contour>
      <point x="164" y="954" type="line"/>
      <point x="154" y="905"/>
      <point x="141" y="819" type="qcurve" smooth="yes"/>
      <point x="127" y="733"/>
      <point x="127" y="616" type="qcurve"/>
      <point x="131" y="309"/>
      <point x="209" y="-70" type="qcurve"/>
      <point x="285" y="-446"/>
      <point x="291" y="-887" type="qcurve"/>
      <point x="291" y="-1012"/>
      <point x="281" y="-1153" type="qcurve" smooth="yes"/>
      <point x="270" y="-1294"/>
      <point x="233" y="-1388" type="qcurve"/>
      <point x="291" y="-1401" type="line"/>
      <point x="410" y="-1300" type="line"/>
      <point x="494" y="-1044"/>
      <point x="496" y="-625" type="qcurve"/>
      <point x="494" y="-510"/>
      <point x="471" y="-186" type="qcurve" smooth="yes"/>
      <point x="448" y="135"/>
      <point x="446" y="459" type="qcurve" smooth="yes"/>
      <point x="446" y="606"/>
      <point x="469" y="723" type="qcurve"/>
      <point x="487" y="838"/>
      <point x="510" y="924" type="qcurve" smooth="yes"/>
      <point x="514" y="938"/>
      <point x="514" y="952" type="qcurve" smooth="yes"/>
      <point x="514" y="973"/>
      <point x="508" y="985" type="qcurve" smooth="yes"/>
      <point x="502" y="997"/>
      <point x="487" y="997" type="qcurve" smooth="yes"/>
      <point x="483" y="997"/>
      <point x="418" y="991" type="qcurve"/>
      <point x="350" y="983"/>
      <point x="164" y="954" type="qcurve"/>
    </contour>
    <contour>
      <point x="305" y="1175" type="line"/>
      <point x="399" y="1178"/>
      <point x="455" y="1214" type="qcurve"/>
      <point x="485" y="1231"/>
      <point x="508" y="1257" type="qcurve"/>
      <point x="518" y="1272"/>
      <point x="524" y="1304" type="qcurve" smooth="yes"/>
      <point x="528" y="1323"/>
      <point x="528" y="1345" type="qcurve" smooth="yes"/>
      <point x="528" y="1395" type="line"/>
      <point x="526" y="1427"/>
      <point x="489" y="1438" type="qcurve"/>
      <point x="451" y="1444"/>
      <point x="410" y="1444" type="qcurve"/>
      <point x="336" y="1446"/>
      <point x="272" y="1419" type="qcurve"/>
      <point x="207" y="1390"/>
      <point x="205" y="1298" type="qcurve"/>
      <point x="205" y="1229"/>
      <point x="233" y="1202" type="qcurve" smooth="yes"/>
      <point x="262" y="1175"/>
      <point x="305" y="1175" type="qcurve"/>
    </contour>
  </outline>
</glyph>
<glyph name="ccedilla" format="1">
  <advance width="1145"/>
  <unicode hex="006F"/>
  <outline>
    <contour>
      <point x="672" y="1044" type="line"/>
      <point x="434" y="967"/>
      <point x="270" y="827" type="qcurve"/>
      <point x="102" y="688"/>
      <point x="98" y="422" type="qcurve"/>
      <point x="98" y="336"/>
      <point x="186" y="166" type="qcurve"/>
      <point x="229" y="90"/>
      <point x="287" y="35" type="qcurve"/>
      <point x="346" y="-23"/>
      <point x="416" y="-25" type="qcurve"/>
      <point x="463" y="-25"/>
      <point x="514" y="-4" type="qcurve" smooth="yes"/>
      <point x="745" y="96" type="line"/>
      <point x="883" y="158"/>
      <point x="956" y="293" type="qcurve"/>
      <point x="1032" y="428"/>
      <point x="1032" y="596" type="qcurve"/>
      <point x="1024" y="983"/>
      <point x="672" y="1044" type="qcurve"/>
    </contour>
    <contour>
      <point x="649" y="172" type="line"/>
      <point x="526" y="172"/>
      <point x="432" y="287" type="qcurve"/>
      <point x="332" y="397"/>
      <point x="330" y="584" type="qcurve"/>
      <point x="330" y="684"/>
      <point x="358" y="764" type="qcurve"/>
      <point x="373" y="801"/>
      <point x="397" y="823" type="qcurve"/>
      <point x="420" y="846"/>
      <point x="453" y="846" type="qcurve" smooth="yes"/>
      <point x="776" y="840"/>
      <point x="782" y="397" type="qcurve"/>
      <point x="782" y="319"/>
      <point x="752" y="250" type="qcurve"/>
      <point x="735" y="217"/>
      <point x="711" y="195" type="qcurve"/>
      <point x="684" y="172"/>
      <point x="649" y="172" type="qcurve"/>
    </contour>
  </outline>
</glyph>
<glyph name="egrave" format="1">
  <advance width="893"/>
  <unicode hex="0071"/>
  <outline>
    <contour>
      <point x="469" y="670" type="line"/>
      <point x="514" y="670"/>
      <point x="524" y="616" type="qcurve"/>
      <point x="532" y="563"/>
      <point x="532" y="475" type="qcurve"/>
      <point x="530" y="385"/>
      <point x="514" y="328" type="qcurve"/>
      <point x="496" y="268"/>
      <point x="469" y="268" type="qcurve" smooth="yes"/>
      <point x="416" y="268"/>
      <point x="367" y="322" type="qcurve"/>
      <point x="313" y="375"/>
      <point x="311" y="479" type="qcurve"/>
      <point x="311" y="532"/>
      <point x="332" y="569" type="qcurve" smooth="yes"/>
      <point x="352" y="606"/>
      <point x="377" y="629" type="qcurve"/>
      <point x="405" y="649"/>
      <point x="430" y="661" type="qcurve"/>
      <point x="457" y="670"/>
      <point x="469" y="670" type="qcurve"/>
    </contour>
    <contour>
      <point x="623" y="-1091" type="line"/>
      <point x="727" y="-1005" type="line"/>
      <point x="772" y="-870"/>
      <point x="788" y="-719" type="qcurve"/>
      <point x="801" y="-569"/>
      <point x="801" y="-463" type="qcurve"/>
      <point x="797" y="-276"/>
      <point x="756" y="90" type="qcurve"/>
      <point x="739" y="258"/>
      <point x="725" y="381" type="qcurve"/>
      <point x="709" y="500"/>
      <point x="709" y="510" type="qcurve" smooth="yes"/>
      <point x="711" y="719"/>
      <point x="768" y="889" type="qcurve"/>
      <point x="766" y="954"/>
      <point x="723" y="975" type="qcurve"/>
      <point x="680" y="993"/>
      <point x="641" y="993" type="qcurve"/>
      <point x="408" y="987"/>
      <point x="272" y="831" type="qcurve"/>
      <point x="135" y="680"/>
      <point x="133" y="510" type="qcurve"/>
      <point x="133" y="383"/>
      <point x="211" y="190" type="qcurve"/>
      <point x="248" y="102"/>
      <point x="297" y="41" type="qcurve"/>
      <point x="344" y="-23"/>
      <point x="399" y="-25" type="qcurve"/>
      <point x="483" y="-23"/>
      <point x="534" y="31" type="qcurve"/>
      <point x="588" y="82"/>
      <point x="614" y="158" type="qcurve"/>
      <point x="618" y="158" type="line"/>
      <point x="612" y="115"/>
      <point x="612" y="4" type="qcurve" smooth="yes"/>
      <point x="612" y="-209"/>
      <point x="627" y="-389" type="qcurve"/>
      <point x="637" y="-569"/>
      <point x="639" y="-629" type="qcurve"/>
      <point x="639" y="-739"/>
      <point x="625" y="-868" type="qcurve"/>
      <point x="606" y="-999"/>
      <point x="573" y="-1081" type="qcurve"/>
    </contour>
  </outline>
</glyph>
<glyph name="ucircumflex" format="1">
  <advance width="1909"/>
  <unicode hex="0080"/>
  <unicode hex="0402"/>
  <outline>
    <contour>
      <point x="410" y="625" type="line"/>
      <point x="422" y="653" type="line"/>
      <point x="405" y="772"/>
      <point x="405" y="889" type="qcurve" smooth="yes"/>
      <point x="405" y="1040"/>
      <point x="430" y="1196" type="qcurve"/>
      <point x="440" y="1245"/>
      <point x="455" y="1276" type="qcurve"/>
      <point x="467" y="1304"/>
      <point x="485" y="1319" type="qcurve"/>
      <point x="524" y="1345"/>
      <point x="586" y="1343" type="qcurve"/>
      <point x="653" y="1343"/>
      <point x="717" y="1337" type="qcurve"/>
      <point x="756" y="1331"/>
      <point x="774" y="1315" type="qcurve"/>
      <point x="788" y="1296"/>
      <point x="788" y="1282" type="qcurve" smooth="yes"/>
      <point x="786" y="1231"/>
      <point x="750" y="944" type="qcurve"/>
      <point x="711" y="657"/>
      <point x="709" y="455" type="qcurve"/>
      <point x="709" y="145"/>
      <point x="731" y="55" type="qcurve" smooth="yes"/>
      <point x="741" y="14"/>
      <point x="758" y="-4" type="qcurve"/>
      <point x="774" y="-25"/>
      <point x="788" y="-25" type="qcurve"/>
      <point x="807" y="-23"/>
      <point x="885" y="-12" type="qcurve"/>
      <point x="960" y="-4"/>
      <point x="1038" y="0" type="qcurve"/>
      <point x="1083" y="4"/>
      <point x="1085" y="66" type="qcurve"/>
      <point x="1077" y="307"/>
      <point x="1073" y="725" type="qcurve"/>
      <point x="1110" y="741"/>
      <point x="1163" y="756" type="qcurve" smooth="yes"/>
      <point x="1214" y="770"/>
      <point x="1245" y="770" type="qcurve"/>
      <point x="1288" y="768"/>
      <point x="1329" y="717" type="qcurve"/>
      <point x="1370" y="664"/>
      <point x="1401" y="580" type="qcurve" smooth="yes"/>
      <point x="1470" y="399"/>
      <point x="1472" y="225" type="qcurve"/>
      <point x="1470" y="96"/>
      <point x="1448" y="2" type="qcurve" smooth="yes"/>
      <point x="1436" y="-47"/>
      <point x="1421" y="-86" type="qcurve" smooth="yes"/>
      <point x="1405" y="-129"/>
      <point x="1386" y="-164" type="qcurve"/>
      <point x="1356" y="-229"/>
      <point x="1329" y="-272" type="qcurve" smooth="yes"/>
      <point x="1300" y="-317"/>
      <point x="1300" y="-342" type="qcurve" smooth="yes"/>
      <point x="1300" y="-362"/>
      <point x="1317" y="-371" type="qcurve"/>
      <point x="1329" y="-381"/>
      <point x="1345" y="-381" type="qcurve" smooth="yes"/>
      <point x="1417" y="-379"/>
      <point x="1493" y="-301" type="qcurve"/>
      <point x="1567" y="-223"/>
      <point x="1632" y="-111" type="qcurve"/>
      <point x="1700" y="4"/>
      <point x="1741" y="117" type="qcurve"/>
      <point x="1782" y="227"/>
      <point x="1782" y="301" type="qcurve" smooth="yes"/>
      <point x="1780" y="573"/>
      <point x="1671" y="741" type="qcurve"/>
      <point x="1558" y="907"/>
      <point x="1352" y="909" type="qcurve"/>
      <point x="1270" y="907"/>
      <point x="1085" y="854" type="qcurve"/>
      <point x="1085" y="854" type="line"/>
      <point x="1102" y="1044"/>
      <point x="1182" y="1315" type="qcurve"/>
      <point x="1218" y="1319"/>
      <point x="1282" y="1319" type="qcurve"/>
      <point x="1378" y="1317"/>
      <point x="1448" y="1259" type="qcurve"/>
      <point x="1513" y="1202"/>
      <point x="1534" y="1124" type="qcurve"/>
      <point x="1550" y="1071"/>
      <point x="1565" y="1036" type="qcurve" smooth="yes"/>
      <point x="1581" y="997"/>
      <point x="1593" y="997" type="qcurve" smooth="yes"/>
      <point x="1634" y="997"/>
      <point x="1681" y="1032" type="qcurve"/>
      <point x="1728" y="1061"/>
      <point x="1765" y="1100" type="qcurve"/>
      <point x="1804" y="1137"/>
      <point x="1818" y="1173" type="qcurve" smooth="yes"/>
      <point x="1833" y="1210"/>
      <point x="1833" y="1286" type="qcurve" smooth="yes"/>
      <point x="1833" y="1370"/>
      <point x="1802" y="1403" type="qcurve"/>
      <point x="1769" y="1431"/>
      <point x="1696" y="1431" type="qcurve"/>
      <point x="889" y="1444"/>
      <point x="354" y="1452" type="qcurve"/>
      <point x="119" y="1454"/>
      <point x="86" y="1231" type="qcurve"/>
      <point x="66" y="1010"/>
      <point x="66" y="782" type="qcurve" smooth="yes"/>
      <point x="66" y="750"/>
      <point x="70" y="715" type="qcurve"/>
      <point x="72" y="680"/>
      <point x="78" y="649" type="qcurve"/>
      <point x="88" y="584"/>
      <point x="133" y="571" type="qcurve"/>
    </contour>
  </outline>
</glyph>
<glyph name="AE" format="1">
  <advance width="1069"/>
  <unicode hex="0090"/>
  <unicode hex="0452"/>
  <outline>
    <contour>
      <point x="86" y="1257" type="line"/>
      <point x="250" y="1286" type="line"/>
      <point x="186" y="938"/>
      <point x="160" y="747" type="qcurve"/>
      <point x="133" y="557"/>
      <point x="133" y="229" type="qcurve" smooth="yes"/>
      <point x="133" y="123" type="line"/>
      <point x="131" y="98"/>
      <point x="131" y="61" type="qcurve" smooth="yes"/>
      <point x="131" y="27"/>
      <point x="139" y="2" type="qcurve"/>
      <point x="145" y="-23"/>
      <point x="166" y="-25" type="qcurve"/>
      <point x="240" y="-23"/>
      <point x="416" y="0" type="qcurve"/>
      <point x="416" y="74" type="line"/>
      <point x="418" y="528"/>
      <point x="463" y="848" type="qcurve"/>
      <point x="508" y="860"/>
      <point x="592" y="866" type="qcurve"/>
      <point x="676" y="870"/>
      <point x="696" y="870" type="qcurve"/>
      <point x="725" y="485"/>
      <point x="727" y="168" type="qcurve"/>
      <point x="733" y="-213"/>
      <point x="641" y="-612" type="qcurve"/>
      <point x="698" y="-625" type="line"/>
      <point x="817" y="-524" type="line"/>
      <point x="874" y="-352"/>
      <point x="911" y="-121" type="qcurve" smooth="yes"/>
      <point x="948" y="113"/>
      <point x="967" y="340" type="qcurve" smooth="yes"/>
      <point x="985" y="567"/>
      <point x="991" y="721" type="qcurve"/>
      <point x="995" y="874"/>
      <point x="995" y="887" type="qcurve" smooth="yes"/>
      <point x="995" y="944"/>
      <point x="979" y="967" type="qcurve" smooth="yes"/>
      <point x="965" y="987"/>
      <point x="936" y="987" type="qcurve" smooth="yes"/>
      <point x="889" y="987"/>
      <point x="743" y="971" type="qcurve" smooth="yes"/>
      <point x="596" y="954"/>
      <point x="467" y="932" type="qcurve"/>
      <point x="498" y="1157"/>
      <point x="528" y="1300" type="qcurve"/>
      <point x="823" y="1317" type="line"/>
      <point x="838" y="1323"/>
      <point x="852" y="1356" type="qcurve" smooth="yes"/>
      <point x="866" y="1388"/>
      <point x="866" y="1413" type="qcurve" smooth="yes"/>
      <point x="866" y="1436"/>
      <point x="848" y="1436" type="qcurve"/>
      <point x="770" y="1431"/>
      <point x="555" y="1393" type="qcurve"/>
      <point x="594" y="1511"/>
      <point x="618" y="1601" type="qcurve" smooth="yes"/>
      <point x="643" y="1692"/>
      <point x="643" y="1732" type="qcurve" smooth="yes"/>
      <point x="643" y="1755"/>
      <point x="631" y="1755" type="qcurve"/>
      <point x="645" y="1757"/>
      <point x="350" y="1718" type="qcurve"/>
      <point x="317" y="1612"/>
      <point x="279" y="1393" type="qcurve"/>
      <point x="123" y="1388" type="line"/>
    </contour>
  </outline>
</glyph>
<glyph name="oslash" format="1">
  <advance width="1769"/>
  <unicode hex="00A1"/>
  <unicode hex="040e"/>
  <outline>
    <contour>
      <point x="1741" y="1378" type="line"/>
      <point x="1745" y="1436" type="line"/>
      <point x="1646" y="1474"/>
      <point x="1552" y="1489" type="qcurve" smooth="yes"/>
      <point x="1458" y="1503"/>
      <point x="1405" y="1503" type="qcurve" smooth="yes"/>
      <point x="1141" y="1501"/>
      <point x="1102" y="1149" type="qcurve"/>
      <point x="1075" y="926"/>
      <point x="1055" y="639" type="qcurve"/>
      <point x="1032" y="348"/>
      <point x="1008" y="166" type="qcurve"/>
      <point x="962" y="164"/>
      <point x="932" y="207" type="qcurve"/>
      <point x="899" y="250"/>
      <point x="868" y="387" type="qcurve"/>
      <point x="682" y="1319" type="line"/>
      <point x="653" y="1378"/>
      <point x="580" y="1405" type="qcurve"/>
      <point x="502" y="1431"/>
      <point x="393" y="1431" type="qcurve" smooth="yes"/>
      <point x="49" y="1431" type="line"/>
      <point x="49" y="1347" type="line"/>
      <point x="172" y="1339"/>
      <point x="244" y="1292" type="qcurve"/>
      <point x="315" y="1243"/>
      <point x="354" y="1100" type="qcurve" smooth="yes"/>
      <point x="424" y="842"/>
      <point x="477" y="590" type="qcurve"/>
      <point x="528" y="338"/>
      <point x="584" y="197" type="qcurve"/>
      <point x="612" y="135"/>
      <point x="651" y="98" type="qcurve"/>
      <point x="690" y="59"/>
      <point x="733" y="41" type="qcurve" smooth="yes"/>
      <point x="776" y="23"/>
      <point x="823" y="16" type="qcurve" smooth="yes"/>
      <point x="866" y="10"/>
      <point x="907" y="10" type="qcurve" smooth="yes"/>
      <point x="934" y="10"/>
      <point x="946" y="2" type="qcurve"/>
      <point x="956" y="-6"/>
      <point x="956" y="-37" type="qcurve" smooth="yes"/>
      <point x="956" y="-86"/>
      <point x="934" y="-211" type="qcurve" smooth="yes"/>
      <point x="911" y="-336"/>
      <point x="883" y="-502" type="qcurve"/>
      <point x="809" y="-852"/>
      <point x="805" y="-1161" type="qcurve"/>
      <point x="805" y="-1280"/>
      <point x="819" y="-1407" type="qcurve"/>
      <point x="926" y="-1407" type="line"/>
      <point x="993" y="-1345" type="line"/>
      <point x="979" y="-1300"/>
      <point x="965" y="-1225" type="qcurve"/>
      <point x="946" y="-1151"/>
      <point x="946" y="-1067" type="qcurve"/>
      <point x="950" y="-862"/>
      <point x="1026" y="-559" type="qcurve"/>
      <point x="1098" y="-258"/>
      <point x="1151" y="10" type="qcurve"/>
      <point x="1264" y="670"/>
      <point x="1302" y="956" type="qcurve"/>
      <point x="1315" y="1038"/>
      <point x="1358" y="1110" type="qcurve" smooth="yes"/>
      <point x="1380" y="1145"/>
      <point x="1411" y="1167" type="qcurve" smooth="yes"/>
      <point x="1438" y="1186"/>
      <point x="1474" y="1186" type="qcurve" smooth="yes"/>
      <point x="1548" y="1188"/>
      <point x="1583" y="1100" type="qcurve"/>
      <point x="1618" y="1100" type="line"/>
      <point x="1642" y="1202"/>
      <point x="1681" y="1282" type="qcurve" smooth="yes"/>
      <point x="1700" y="1323"/>
      <point x="1716" y="1347" type="qcurve" smooth="yes"/>
      <point x="1732" y="1372"/>
      <point x="1741" y="1378" type="qcurve"/>
    </contour>
    <contour>
      <point x="1622" y="1943" type="line"/>
      <point x="1634" y="1960"/>
      <point x="1634" y="1999" type="qcurve"/>
      <point x="1636" y="2072"/>
      <point x="1589" y="2163" type="qcurve"/>
      <point x="1563" y="2203"/>
      <point x="1509" y="2232" type="qcurve"/>
      <point x="1456" y="2259"/>
      <point x="1370" y="2259" type="qcurve" smooth="yes"/>
      <point x="1321" y="2259"/>
      <point x="1307" y="2242" type="qcurve"/>
      <point x="1290" y="2224"/>
      <point x="1292" y="2181" type="qcurve" smooth="yes"/>
      <point x="1294" y="2154"/>
      <point x="1274" y="2103" type="qcurve"/>
      <point x="1261" y="2081"/>
      <point x="1231" y="2064" type="qcurve"/>
      <point x="1200" y="2048"/>
      <point x="1149" y="2044" type="qcurve"/>
      <point x="1071" y="2046"/>
      <point x="717" y="2068" type="qcurve"/>
      <point x="360" y="2087"/>
      <point x="297" y="2089" type="qcurve" smooth="yes"/>
      <point x="276" y="2089"/>
      <point x="268" y="2050" type="qcurve" smooth="yes"/>
      <point x="260" y="2009"/>
      <point x="260" y="1896" type="qcurve" smooth="yes"/>
      <point x="260" y="1857"/>
      <point x="270" y="1823" type="qcurve"/>
      <point x="279" y="1786"/>
      <point x="305" y="1761" type="qcurve"/>
      <point x="346" y="1730"/>
      <point x="428" y="1718" type="qcurve" smooth="yes"/>
      <point x="508" y="1706"/>
      <point x="580" y="1706" type="qcurve"/>
      <point x="643" y="1704"/>
      <point x="643" y="1747" type="qcurve" smooth="yes"/>
      <point x="643" y="1769"/>
      <point x="635" y="1808" type="qcurve" smooth="yes"/>
      <point x="627" y="1845"/>
      <point x="627" y="1874" type="qcurve" smooth="yes"/>
      <point x="627" y="1943"/>
      <point x="664" y="1968" type="qcurve"/>
      <point x="698" y="1988"/>
      <point x="756" y="1988" type="qcurve"/>
      <point x="1022" y="1982"/>
      <point x="1622" y="1943" type="qcurve"/>
    </contour>
  </outline>
</glyph>
<glyph name="Otilde" format="1">
  <advance width="999"/>
  <unicode hex="00AF"/>
  <unicode hex="0407"/>
  <outline>
    <contour>
      <point x="254" y="1395" type="line"/>
      <point x="231" y="1302"/>
      <point x="219" y="1145" type="qcurve"/>
      <point x="205" y="985"/>
      <point x="205" y="651" type="qcurve"/>
      <point x="203" y="416"/>
      <point x="229" y="59" type="qcurve"/>
      <point x="236" y="20"/>
      <point x="258" y="-2" type="qcurve" smooth="yes"/>
      <point x="283" y="-27"/>
      <point x="299" y="-27" type="qcurve" smooth="yes"/>
      <point x="309" y="-27"/>
      <point x="346" y="-23" type="qcurve" smooth="yes"/>
      <point x="588" y="0" type="line"/>
      <point x="627" y="6"/>
      <point x="629" y="68" type="qcurve"/>
      <point x="614" y="395"/>
      <point x="606" y="745" type="qcurve"/>
      <point x="604" y="1049"/>
      <point x="682" y="1350" type="qcurve" smooth="yes"/>
      <point x="688" y="1370"/>
      <point x="688" y="1395" type="qcurve" smooth="yes"/>
      <point x="688" y="1417"/>
      <point x="682" y="1433" type="qcurve"/>
      <point x="672" y="1450"/>
      <point x="653" y="1450" type="qcurve"/>
      <point x="584" y="1444" type="line"/>
      <point x="512" y="1433"/>
      <point x="254" y="1395" type="qcurve"/>
    </contour>
    <contour>
      <point x="737" y="1620" type="line"/>
      <point x="778" y="1620"/>
      <point x="827" y="1636" type="qcurve"/>
      <point x="852" y="1642"/>
      <point x="870" y="1653" type="qcurve"/>
      <point x="889" y="1659"/>
      <point x="899" y="1669" type="qcurve"/>
      <point x="932" y="1694"/>
      <point x="950" y="1739" type="qcurve"/>
      <point x="969" y="1782"/>
      <point x="969" y="1880" type="qcurve"/>
      <point x="967" y="1923"/>
      <point x="934" y="1939" type="qcurve"/>
      <point x="899" y="1952"/>
      <point x="852" y="1952" type="qcurve"/>
      <point x="772" y="1954"/>
      <point x="702" y="1921" type="qcurve"/>
      <point x="672" y="1902"/>
      <point x="651" y="1866" type="qcurve" smooth="yes"/>
      <point x="629" y="1829"/>
      <point x="629" y="1771" type="qcurve" smooth="yes"/>
      <point x="629" y="1687"/>
      <point x="661" y="1655" type="qcurve"/>
      <point x="690" y="1620"/>
      <point x="737" y="1620" type="qcurve"/>
    </contour>
    <contour>
      <point x="207" y="1608" type="line"/>
      <point x="248" y="1608"/>
      <point x="297" y="1624" type="qcurve"/>
      <point x="322" y="1630"/>
      <point x="340" y="1640" type="qcurve"/>
      <point x="358" y="1646"/>
      <point x="369" y="1657" type="qcurve"/>
      <point x="401" y="1681"/>
      <point x="420" y="1726" type="qcurve" smooth="yes"/>
      <point x="438" y="1769"/>
      <point x="438" y="1868" type="qcurve"/>
      <point x="436" y="1911"/>
      <point x="403" y="1927" type="qcurve"/>
      <point x="369" y="1939"/>
      <point x="322" y="1939" type="qcurve"/>
      <point x="242" y="1941"/>
      <point x="172" y="1909" type="qcurve"/>
      <point x="141" y="1890"/>
      <point x="121" y="1853" type="qcurve"/>
      <point x="98" y="1816"/>
      <point x="98" y="1759" type="qcurve" smooth="yes"/>
      <point x="98" y="1675"/>
      <point x="131" y="1642" type="qcurve"/>
      <point x="160" y="1608"/>
      <point x="207" y="1608" type="qcurve"/>
    </contour>
  </outline>
</glyph>
<glyph name="oe" format="1">
  <advance width="1364"/>
  <unicode hex="00B1"/>
  <outline>
    <contour>
      <point x="876" y="1378" type="line"/>
      <point x="821" y="1388"/>
      <point x="768" y="1388" type="qcurve"/>
      <point x="682" y="1390"/>
      <point x="647" y="1370" type="qcurve" smooth="yes"/>
      <point x="612" y="1350"/>
      <point x="604" y="1272" type="qcurve" smooth="yes"/>
      <point x="590" y="1145"/>
      <point x="590" y="1049" type="qcurve"/>
      <point x="440" y="1046"/>
      <point x="276" y="1036" type="qcurve"/>
      <point x="250" y="958"/>
      <point x="248" y="860" type="qcurve" smooth="yes"/>
      <point x="248" y="827"/>
      <point x="268" y="817" type="qcurve"/>
      <point x="285" y="807"/>
      <point x="313" y="807" type="qcurve" smooth="yes"/>
      <point x="434" y="809"/>
      <point x="590" y="819" type="qcurve"/>
      <point x="584" y="723"/>
      <point x="582" y="606" type="qcurve"/>
      <point x="582" y="532"/>
      <point x="592" y="483" type="qcurve"/>
      <point x="639" y="471"/>
      <point x="704" y="471" type="qcurve" smooth="yes"/>
      <point x="774" y="471"/>
      <point x="823" y="483" type="qcurve"/>
      <point x="836" y="526"/>
      <point x="842" y="616" type="qcurve" smooth="yes"/>
      <point x="848" y="704"/>
      <point x="856" y="827" type="qcurve"/>
      <point x="938" y="819"/>
      <point x="1026" y="819" type="qcurve" smooth="yes"/>
      <point x="1089" y="819"/>
      <point x="1128" y="823" type="qcurve"/>
      <point x="1143" y="860"/>
      <point x="1159" y="913" type="qcurve"/>
      <point x="1173" y="967"/>
      <point x="1173" y="1005" type="qcurve" smooth="yes"/>
      <point x="1173" y="1024"/>
      <point x="1169" y="1040" type="qcurve"/>
      <point x="1155" y="1046"/>
      <point x="1112" y="1053" type="qcurve"/>
      <point x="1069" y="1055"/>
      <point x="1032" y="1055" type="qcurve"/>
      <point x="954" y="1051"/>
      <point x="856" y="1051" type="qcurve"/>
      <point x="874" y="1233"/>
      <point x="876" y="1378" type="qcurve"/>
    </contour>
    <contour>
      <point x="274" y="264" type="line"/>
      <point x="281" y="231" type="line"/>
      <point x="291" y="197"/>
      <point x="367" y="188" type="qcurve"/>
      <point x="442" y="178"/>
      <point x="532" y="178" type="qcurve" smooth="yes"/>
      <point x="651" y="178"/>
      <point x="793" y="186" type="qcurve" smooth="yes"/>
      <point x="936" y="195"/>
      <point x="1008" y="215" type="qcurve"/>
      <point x="1051" y="233"/>
      <point x="1061" y="285" type="qcurve"/>
      <point x="1067" y="334"/>
      <point x="1067" y="385" type="qcurve"/>
      <point x="1065" y="403"/>
      <point x="1038" y="416" type="qcurve" smooth="yes"/>
      <point x="1012" y="428"/>
      <point x="991" y="428" type="qcurve" smooth="yes"/>
      <point x="919" y="426"/>
      <point x="762" y="410" type="qcurve"/>
      <point x="602" y="389"/>
      <point x="549" y="389" type="qcurve"/>
      <point x="518" y="393"/>
      <point x="418" y="395" type="qcurve" smooth="yes"/>
      <point x="373" y="395"/>
      <point x="338" y="391" type="qcurve" smooth="yes"/>
      <point x="303" y="387"/>
      <point x="295" y="369" type="qcurve"/>
      <point x="272" y="293"/>
      <point x="274" y="264" type="qcurve"/>
    </contour>
  </outline>
</glyph>
<glyph name="fl" format="1">
  <advance width="1481"/>
  <unicode hex="00C1"/>
  <unicode hex="0411"/>
  <outline>
    <contour>
      <point x="1458" y="1429" type="line"/>
      <point x="1272" y="1454"/>
      <point x="993" y="1454" type="qcurve"/>
      <point x="682" y="1452"/>
      <point x="491" y="1429" type="qcurve"/>
      <point x="424" y="1415"/>
      <point x="373" y="1337" type="qcurve"/>
      <point x="319" y="1259"/>
      <point x="301" y="1169" type="qcurve"/>
      <point x="252" y="905"/>
      <point x="213" y="596" type="qcurve"/>
      <point x="172" y="287"/>
      <point x="170" y="172" type="qcurve" smooth="yes"/>
      <point x="170" y="115"/>
      <point x="182" y="80" type="qcurve" smooth="yes"/>
      <point x="195" y="43"/>
      <point x="213" y="23" type="qcurve"/>
      <point x="252" y="-12"/>
      <point x="311" y="-10" type="qcurve"/>
      <point x="338" y="-8"/>
      <point x="371" y="-4" type="qcurve" smooth="yes"/>
      <point x="401" y="0"/>
      <point x="410" y="0" type="qcurve" smooth="yes"/>
      <point x="1116" y="0" type="line" smooth="yes"/>
      <point x="1208" y="0"/>
      <point x="1212" y="123" type="qcurve"/>
      <point x="1210" y="176"/>
      <point x="1128" y="448" type="qcurve"/>
      <point x="1087" y="571"/>
      <point x="1032" y="661" type="qcurve" smooth="yes"/>
      <point x="1003" y="707"/>
      <point x="973" y="731" type="qcurve" smooth="yes"/>
      <point x="942" y="756"/>
      <point x="907" y="756" type="qcurve" smooth="yes"/>
      <point x="881" y="756"/>
      <point x="850" y="737" type="qcurve" smooth="yes"/>
      <point x="598" y="590" type="line"/>
      <point x="584" y="612"/>
      <point x="584" y="641" type="qcurve" smooth="yes"/>
      <point x="584" y="666"/>
      <point x="592" y="702" type="qcurve" smooth="yes"/>
      <point x="678" y="1116" type="line"/>
      <point x="700" y="1237"/>
      <point x="752" y="1294" type="qcurve"/>
      <point x="801" y="1350"/>
      <point x="913" y="1350" type="qcurve" smooth="yes"/>
      <point x="977" y="1350"/>
      <point x="1008" y="1325" type="qcurve"/>
      <point x="1038" y="1296"/>
      <point x="1067" y="1229" type="qcurve" smooth="yes"/>
      <point x="1124" y="1094"/>
      <point x="1180" y="1094" type="qcurve" smooth="yes"/>
      <point x="1196" y="1094"/>
      <point x="1241" y="1130" type="qcurve"/>
      <point x="1286" y="1163"/>
      <point x="1335" y="1214" type="qcurve" smooth="yes"/>
      <point x="1386" y="1268"/>
      <point x="1421" y="1325" type="qcurve" smooth="yes"/>
      <point x="1456" y="1382"/>
      <point x="1458" y="1429" type="qcurve"/>
    </contour>
    <contour>
      <point x="684" y="88" type="line"/>
      <point x="627" y="90"/>
      <point x="598" y="162" type="qcurve"/>
      <point x="567" y="229"/>
      <point x="567" y="319" type="qcurve" smooth="yes"/>
      <point x="567" y="405"/>
      <point x="596" y="469" type="qcurve"/>
      <point x="620" y="530"/>
      <point x="670" y="532" type="qcurve"/>
      <point x="698" y="532"/>
      <point x="723" y="510" type="qcurve"/>
      <point x="745" y="487"/>
      <point x="762" y="451" type="qcurve"/>
      <point x="797" y="371"/>
      <point x="797" y="291" type="qcurve" smooth="yes"/>
      <point x="797" y="213"/>
      <point x="776" y="154" type="qcurve"/>
      <point x="750" y="90"/>
      <point x="684" y="88" type="qcurve"/>
    </contour>
  </outline>
</glyph>
<glyph name="Edieresis" format="1">
  <advance width="1661"/>
  <unicode hex="00CA"/>
  <unicode hex="041a"/>
  <outline>
    <contour>
      <point x="219" y="1401" type="line"/>
      <point x="174" y="1237"/>
      <point x="174" y="651" type="qcurve"/>
      <point x="172" y="416"/>
      <point x="197" y="59" type="qcurve"/>
      <point x="201" y="20"/>
      <point x="221" y="-2" type="qcurve"/>
      <point x="240" y="-27"/>
      <point x="256" y="-27" type="qcurve" smooth="yes"/>
      <point x="336" y="-23"/>
      <point x="483" y="-4" type="qcurve" smooth="yes"/>
      <point x="530" y="2"/>
      <point x="545" y="18" type="qcurve"/>
      <point x="557" y="35"/>
      <point x="557" y="74" type="qcurve"/>
      <point x="543" y="391"/>
      <point x="534" y="750" type="qcurve"/>
      <point x="534" y="1061"/>
      <point x="604" y="1345" type="qcurve" smooth="yes"/>
      <point x="610" y="1368"/>
      <point x="610" y="1390" type="qcurve" smooth="yes"/>
      <point x="610" y="1417"/>
      <point x="604" y="1436" type="qcurve"/>
      <point x="596" y="1454"/>
      <point x="577" y="1454" type="qcurve" smooth="yes"/>
      <point x="575" y="1454"/>
      <point x="508" y="1448" type="qcurve"/>
      <point x="438" y="1438"/>
      <point x="219" y="1401" type="qcurve"/>
    </contour>
    <contour>
      <point x="1614" y="1429" type="line"/>
      <point x="1587" y="1427"/>
      <point x="1558" y="1397" type="qcurve"/>
      <point x="1542" y="1384"/>
      <point x="1524" y="1374" type="qcurve"/>
      <point x="1503" y="1360"/>
      <point x="1479" y="1360" type="qcurve" smooth="yes"/>
      <point x="1413" y="1362"/>
      <point x="1345" y="1397" type="qcurve"/>
      <point x="1274" y="1427"/>
      <point x="1200" y="1429" type="qcurve"/>
      <point x="1151" y="1429"/>
      <point x="1081" y="1388" type="qcurve"/>
      <point x="1008" y="1347"/>
      <point x="950" y="1270" type="qcurve" smooth="yes"/>
      <point x="874" y="1169"/>
      <point x="790" y="1022" type="qcurve" smooth="yes"/>
      <point x="750" y="950"/>
      <point x="725" y="889" type="qcurve"/>
      <point x="694" y="823"/>
      <point x="694" y="780" type="qcurve" smooth="yes"/>
      <point x="694" y="750"/>
      <point x="735" y="657" type="qcurve"/>
      <point x="770" y="565"/>
      <point x="821" y="442" type="qcurve" smooth="yes"/>
      <point x="872" y="319"/>
      <point x="913" y="203" type="qcurve" smooth="yes"/>
      <point x="954" y="84"/>
      <point x="962" y="0" type="qcurve"/>
      <point x="975" y="-27"/>
      <point x="991" y="-27" type="qcurve" smooth="yes"/>
      <point x="1085" y="-25"/>
      <point x="1331" y="-2" type="qcurve"/>
      <point x="1354" y="2"/>
      <point x="1354" y="29" type="qcurve" smooth="yes"/>
      <point x="1354" y="82"/>
      <point x="1325" y="180" type="qcurve" smooth="yes"/>
      <point x="1296" y="279"/>
      <point x="1253" y="391" type="qcurve" smooth="yes"/>
      <point x="1159" y="633"/>
      <point x="1106" y="752" type="qcurve" smooth="yes"/>
      <point x="1089" y="790"/>
      <point x="1071" y="815" type="qcurve"/>
      <point x="1051" y="838"/>
      <point x="1026" y="846" type="qcurve" smooth="yes"/>
      <point x="977" y="862"/>
      <point x="932" y="862" type="qcurve" smooth="yes"/>
      <point x="905" y="862"/>
      <point x="883" y="870" type="qcurve"/>
      <point x="856" y="876"/>
      <point x="856" y="899" type="qcurve" smooth="yes"/>
      <point x="856" y="934"/>
      <point x="887" y="981" type="qcurve"/>
      <point x="913" y="1028"/>
      <point x="956" y="1075" type="qcurve" smooth="yes"/>
      <point x="999" y="1122"/>
      <point x="1053" y="1153" type="qcurve" smooth="yes"/>
      <point x="1104" y="1182"/>
      <point x="1151" y="1184" type="qcurve"/>
      <point x="1188" y="1184"/>
      <point x="1210" y="1178" type="qcurve"/>
      <point x="1235" y="1169"/>
      <point x="1257" y="1159" type="qcurve"/>
      <point x="1282" y="1151"/>
      <point x="1315" y="1141" type="qcurve"/>
      <point x="1347" y="1130"/>
      <point x="1405" y="1130" type="qcurve" smooth="yes"/>
      <point x="1448" y="1130"/>
      <point x="1489" y="1163" type="qcurve" smooth="yes"/>
      <point x="1530" y="1196"/>
      <point x="1563" y="1239" type="qcurve" smooth="yes"/>
      <point x="1597" y="1284"/>
      <point x="1618" y="1329" type="qcurve"/>
      <point x="1636" y="1372"/>
      <point x="1636" y="1401" type="qcurve"/>
      <point x="1634" y="1427"/>
      <point x="1614" y="1429" type="qcurve"/>
    </contour>
  </outline>
</glyph>
<glyph name="apple" format="1">
  <advance width="1909"/>
  <unicode hex="00D2"/>
  <unicode hex="0422"/>
  <outline>
    <contour>
      <point x="410" y="625" type="line"/>
      <point x="422" y="653" type="line"/>
      <point x="405" y="772"/>
      <point x="405" y="889" type="qcurve" smooth="yes"/>
      <point x="405" y="1040"/>
      <point x="430" y="1196" type="qcurve"/>
      <point x="440" y="1245"/>
      <point x="455" y="1276" type="qcurve"/>
      <point x="467" y="1304"/>
      <point x="485" y="1319" type="qcurve"/>
      <point x="524" y="1345"/>
      <point x="586" y="1343" type="qcurve"/>
      <point x="653" y="1343"/>
      <point x="717" y="1337" type="qcurve"/>
      <point x="756" y="1331"/>
      <point x="774" y="1315" type="qcurve"/>
      <point x="788" y="1296"/>
      <point x="788" y="1282" type="qcurve"/>
      <point x="772" y="1298"/>
      <point x="762" y="653" type="qcurve"/>
      <point x="760" y="418"/>
      <point x="784" y="61" type="qcurve"/>
      <point x="788" y="23"/>
      <point x="809" y="0" type="qcurve"/>
      <point x="829" y="-25"/>
      <point x="846" y="-25" type="qcurve"/>
      <point x="864" y="-23"/>
      <point x="942" y="-12" type="qcurve"/>
      <point x="1018" y="-4"/>
      <point x="1096" y="0" type="qcurve"/>
      <point x="1141" y="4"/>
      <point x="1143" y="66" type="qcurve"/>
      <point x="1128" y="389"/>
      <point x="1122" y="743" type="qcurve"/>
      <point x="1120" y="1022"/>
      <point x="1182" y="1315" type="qcurve"/>
      <point x="1218" y="1319"/>
      <point x="1282" y="1319" type="qcurve" smooth="yes"/>
      <point x="1360" y="1319"/>
      <point x="1436" y="1315" type="qcurve"/>
      <point x="1505" y="1307"/>
      <point x="1542" y="1268" type="qcurve"/>
      <point x="1579" y="1227"/>
      <point x="1595" y="1175" type="qcurve"/>
      <point x="1616" y="1126"/>
      <point x="1630" y="1087" type="qcurve"/>
      <point x="1640" y="1069"/>
      <point x="1649" y="1059" type="qcurve"/>
      <point x="1655" y="1046"/>
      <point x="1665" y="1046" type="qcurve" smooth="yes"/>
      <point x="1681" y="1046"/>
      <point x="1720" y="1085" type="qcurve"/>
      <point x="1757" y="1120"/>
      <point x="1798" y="1173" type="qcurve"/>
      <point x="1843" y="1229"/>
      <point x="1874" y="1282" type="qcurve"/>
      <point x="1902" y="1335"/>
      <point x="1905" y="1372" type="qcurve"/>
      <point x="1905" y="1403"/>
      <point x="1874" y="1417" type="qcurve"/>
      <point x="1841" y="1429"/>
      <point x="1767" y="1429" type="qcurve"/>
      <point x="924" y="1444"/>
      <point x="354" y="1452" type="qcurve"/>
      <point x="119" y="1454"/>
      <point x="86" y="1231" type="qcurve"/>
      <point x="66" y="1010"/>
      <point x="66" y="782" type="qcurve" smooth="yes"/>
      <point x="66" y="750"/>
      <point x="70" y="715" type="qcurve"/>
      <point x="72" y="680"/>
      <point x="78" y="649" type="qcurve"/>
      <point x="88" y="584"/>
      <point x="133" y="571" type="qcurve"/>
    </contour>
  </outline>
</glyph>
<glyph name="Ograve" format="1">
  <advance width="1769"/>
  <unicode hex="00D3"/>
  <unicode hex="0423"/>
  <outline>
    <contour>
      <point x="1741" y="1378" type="line"/>
      <point x="1745" y="1436" type="line"/>
      <point x="1646" y="1474"/>
      <point x="1552" y="1489" type="qcurve" smooth="yes"/>
      <point x="1458" y="1503"/>
      <point x="1405" y="1503" type="qcurve" smooth="yes"/>
      <point x="1141" y="1501"/>
      <point x="1102" y="1149" type="qcurve"/>
      <point x="1075" y="926"/>
      <point x="1055" y="639" type="qcurve"/>
      <point x="1032" y="348"/>
      <point x="1008" y="166" type="qcurve"/>
      <point x="962" y="164"/>
      <point x="932" y="207" type="qcurve"/>
      <point x="899" y="250"/>
      <point x="868" y="387" type="qcurve"/>
      <point x="682" y="1319" type="line"/>
      <point x="653" y="1378"/>
      <point x="580" y="1405" type="qcurve"/>
      <point x="502" y="1431"/>
      <point x="393" y="1431" type="qcurve" smooth="yes"/>
      <point x="49" y="1431" type="line"/>
      <point x="49" y="1347" type="line"/>
      <point x="172" y="1339"/>
      <point x="244" y="1292" type="qcurve"/>
      <point x="315" y="1243"/>
      <point x="354" y="1100" type="qcurve" smooth="yes"/>
      <point x="424" y="842"/>
      <point x="477" y="590" type="qcurve"/>
      <point x="528" y="338"/>
      <point x="584" y="197" type="qcurve"/>
      <point x="612" y="135"/>
      <point x="651" y="98" type="qcurve"/>
      <point x="690" y="59"/>
      <point x="733" y="41" type="qcurve" smooth="yes"/>
      <point x="776" y="23"/>
      <point x="823" y="16" type="qcurve" smooth="yes"/>
      <point x="866" y="10"/>
      <point x="907" y="10" type="qcurve" smooth="yes"/>
      <point x="934" y="10"/>
      <point x="946" y="2" type="qcurve"/>
      <point x="956" y="-6"/>
      <point x="956" y="-37" type="qcurve" smooth="yes"/>
      <point x="956" y="-86"/>
      <point x="934" y="-211" type="qcurve" smooth="yes"/>
      <point x="911" y="-336"/>
      <point x="883" y="-502" type="qcurve"/>
      <point x="809" y="-852"/>
      <point x="805" y="-1161" type="qcurve"/>
      <point x="805" y="-1280"/>
      <point x="819" y="-1407" type="qcurve"/>
      <point x="926" y="-1407" type="line"/>
      <point x="993" y="-1345" type="line"/>
      <point x="979" y="-1300"/>
      <point x="965" y="-1225" type="qcurve"/>
      <point x="946" y="-1151"/>
      <point x="946" y="-1067" type="qcurve"/>
      <point x="950" y="-862"/>
      <point x="1026" y="-559" type="qcurve"/>
      <point x="1098" y="-258"/>
      <point x="1151" y="10" type="qcurve"/>
      <point x="1264" y="670"/>
      <point x="1302" y="956" type="qcurve"/>
      <point x="1315" y="1038"/>
      <point x="1358" y="1110" type="qcurve" smooth="yes"/>
      <point x="1380" y="1145"/>
      <point x="1411" y="1167" type="qcurve" smooth="yes"/>
      <point x="1438" y="1186"/>
      <point x="1474" y="1186" type="qcurve" smooth="yes"/>
      <point x="1548" y="1188"/>
      <point x="1583" y="1100" type="qcurve"/>
      <point x="1618" y="1100" type="line"/>
      <point x="1642" y="1202"/>
      <point x="1681" y="1282" type="qcurve" smooth="yes"/>
      <point x="1700" y="1323"/>
      <point x="1716" y="1347" type="qcurve" smooth="yes"/>
      <point x="1732" y="1372"/>
      <point x="1741" y="1378" type="qcurve"/>
    </contour>
  </outline>
</glyph>
<glyph name="Uacute" format="1">
  <advance width="1935"/>
  <unicode hex="00D4"/>
  <unicode hex="0424"/>
  <outline>
    <contour>
      <point x="731" y="2558" type="line"/>
      <point x="731" y="2558" type="line"/>
      <point x="731" y="2507" type="line"/>
      <point x="770" y="2484"/>
      <point x="795" y="2441" type="qcurve"/>
      <point x="815" y="2398"/>
      <point x="827" y="2343" type="qcurve"/>
      <point x="848" y="2228"/>
      <point x="846" y="2109" type="qcurve" smooth="yes"/>
      <point x="842" y="1710"/>
      <point x="733" y="1517" type="qcurve"/>
      <point x="684" y="1417"/>
      <point x="618" y="1347" type="qcurve"/>
      <point x="553" y="1276"/>
      <point x="485" y="1218" type="qcurve"/>
      <point x="418" y="1165"/>
      <point x="354" y="1112" type="qcurve" smooth="yes"/>
      <point x="291" y="1059"/>
      <point x="238" y="989" type="qcurve"/>
      <point x="184" y="922"/>
      <point x="154" y="827" type="qcurve"/>
      <point x="121" y="731"/>
      <point x="121" y="594" type="qcurve"/>
      <point x="123" y="463"/>
      <point x="201" y="375" type="qcurve"/>
      <point x="274" y="285"/>
      <point x="385" y="215" type="qcurve"/>
      <point x="496" y="147"/>
      <point x="602" y="76" type="qcurve"/>
      <point x="707" y="4"/>
      <point x="770" y="-94" type="qcurve"/>
      <point x="782" y="-109"/>
      <point x="799" y="-137" type="qcurve"/>
      <point x="811" y="-166"/>
      <point x="823" y="-217" type="qcurve"/>
      <point x="848" y="-313"/>
      <point x="870" y="-559" type="qcurve" smooth="yes"/>
      <point x="944" y="-1380" type="line"/>
      <point x="1038" y="-1425" type="line"/>
      <point x="1038" y="-1425" type="line"/>
      <point x="1108" y="-1257" type="line"/>
      <point x="1057" y="-1184"/>
      <point x="1057" y="-1030" type="qcurve"/>
      <point x="1067" y="-747"/>
      <point x="1075" y="-264" type="qcurve"/>
      <point x="1075" y="-164"/>
      <point x="1110" y="-100" type="qcurve"/>
      <point x="1141" y="-39"/>
      <point x="1194" y="-2" type="qcurve"/>
      <point x="1247" y="37"/>
      <point x="1315" y="61" type="qcurve"/>
      <point x="1380" y="86"/>
      <point x="1452" y="109" type="qcurve" smooth="yes"/>
      <point x="1524" y="133"/>
      <point x="1591" y="168" type="qcurve"/>
      <point x="1659" y="205"/>
      <point x="1712" y="262" type="qcurve" smooth="yes"/>
      <point x="1765" y="319"/>
      <point x="1798" y="414" type="qcurve"/>
      <point x="1829" y="508"/>
      <point x="1829" y="649" type="qcurve"/>
      <point x="1827" y="895"/>
      <point x="1724" y="1034" type="qcurve"/>
      <point x="1624" y="1173"/>
      <point x="1491" y="1270" type="qcurve"/>
      <point x="1429" y="1321"/>
      <point x="1370" y="1376" type="qcurve"/>
      <point x="1309" y="1427"/>
      <point x="1259" y="1491" type="qcurve"/>
      <point x="1153" y="1612"/>
      <point x="1151" y="1825" type="qcurve"/>
      <point x="1151" y="2507" type="line"/>
    </contour>
    <contour>
      <point x="795" y="1347" type="line"/>
      <point x="795" y="57" type="line"/>
      <point x="795" y="57" type="line"/>
      <point x="741" y="84"/>
      <point x="682" y="129" type="qcurve"/>
      <point x="620" y="172"/>
      <point x="563" y="242" type="qcurve"/>
      <point x="510" y="311"/>
      <point x="475" y="412" type="qcurve"/>
      <point x="436" y="512"/>
      <point x="436" y="649" type="qcurve" smooth="yes"/>
      <point x="436" y="958"/>
      <point x="528" y="1110" type="qcurve" smooth="yes"/>
      <point x="618" y="1259"/>
      <point x="795" y="1347" type="qcurve"/>
    </contour>
    <contour>
      <point x="1108" y="90" type="line"/>
      <point x="1108" y="1173" type="line"/>
      <point x="1108" y="1173" type="line"/>
      <point x="1380" y="938"/>
      <point x="1454" y="774" type="qcurve"/>
      <point x="1493" y="692"/>
      <point x="1505" y="625" type="qcurve"/>
      <point x="1513" y="555"/>
      <point x="1513" y="496" type="qcurve" smooth="yes"/>
      <point x="1511" y="317"/>
      <point x="1401" y="229" type="qcurve" smooth="yes"/>
      <point x="1290" y="141"/>
      <point x="1108" y="90" type="qcurve"/>
    </contour>
  </outline>
</glyph>
<glyph name="circumflex" format="1">
  <advance width="2310"/>
  <unicode hex="00D8"/>
  <unicode hex="0428"/>
  <outline>
    <contour>
      <point x="283" y="1407" type="line"/>
      <point x="172" y="932"/>
      <point x="172" y="307" type="qcurve"/>
      <point x="170" y="129"/>
      <point x="190" y="0" type="qcurve"/>
      <point x="569" y="0" type="line" smooth="yes"/>
      <point x="1087" y="0"/>
      <point x="1515" y="-12" type="qcurve"/>
      <point x="1941" y="-25"/>
      <point x="2005" y="-27" type="qcurve"/>
      <point x="2054" y="-27"/>
      <point x="2083" y="-4" type="qcurve" smooth="yes"/>
      <point x="2107" y="16"/>
      <point x="2107" y="74" type="qcurve"/>
      <point x="2093" y="422"/>
      <point x="2085" y="750" type="qcurve"/>
      <point x="2085" y="1061"/>
      <point x="2154" y="1345" type="qcurve" smooth="yes"/>
      <point x="2160" y="1368"/>
      <point x="2160" y="1390" type="qcurve" smooth="yes"/>
      <point x="2160" y="1417"/>
      <point x="2154" y="1436" type="qcurve"/>
      <point x="2146" y="1454"/>
      <point x="2128" y="1454" type="qcurve" smooth="yes"/>
      <point x="2126" y="1454"/>
      <point x="2058" y="1448" type="qcurve"/>
      <point x="1988" y="1438"/>
      <point x="1769" y="1401" type="qcurve"/>
      <point x="1749" y="1304"/>
      <point x="1741" y="1163" type="qcurve" smooth="yes"/>
      <point x="1732" y="1022"/>
      <point x="1732" y="713" type="qcurve" smooth="yes"/>
      <point x="1732" y="428"/>
      <point x="1743" y="147" type="qcurve"/>
      <point x="1724" y="117"/>
      <point x="1683" y="100" type="qcurve" smooth="yes"/>
      <point x="1642" y="82"/>
      <point x="1593" y="82" type="qcurve" smooth="yes"/>
      <point x="1524" y="82"/>
      <point x="1456" y="104" type="qcurve"/>
      <point x="1388" y="123"/>
      <point x="1350" y="133" type="qcurve"/>
      <point x="1323" y="520"/>
      <point x="1321" y="739" type="qcurve"/>
      <point x="1323" y="995"/>
      <point x="1352" y="1311" type="qcurve" smooth="yes"/>
      <point x="1358" y="1368"/>
      <point x="1360" y="1411" type="qcurve"/>
      <point x="1360" y="1433"/>
      <point x="1329" y="1433" type="qcurve" smooth="yes"/>
      <point x="1302" y="1433"/>
      <point x="1261" y="1425" type="qcurve" smooth="yes"/>
      <point x="965" y="1372" type="line"/>
      <point x="938" y="1018"/>
      <point x="938" y="664" type="qcurve"/>
      <point x="940" y="424"/>
      <point x="960" y="133" type="qcurve"/>
      <point x="946" y="119"/>
      <point x="864" y="102" type="qcurve"/>
      <point x="782" y="82"/>
      <point x="694" y="82" type="qcurve" smooth="yes"/>
      <point x="614" y="82"/>
      <point x="592" y="111" type="qcurve"/>
      <point x="580" y="123"/>
      <point x="575" y="141" type="qcurve" smooth="yes"/>
      <point x="569" y="160"/>
      <point x="569" y="180" type="qcurve" smooth="yes"/>
      <point x="573" y="776"/>
      <point x="631" y="1042" type="qcurve"/>
      <point x="653" y="1180"/>
      <point x="672" y="1257" type="qcurve"/>
      <point x="688" y="1333"/>
      <point x="688" y="1362" type="qcurve" smooth="yes"/>
      <point x="690" y="1431"/>
      <point x="612" y="1433" type="qcurve"/>
      <point x="555" y="1431"/>
      <point x="283" y="1407" type="qcurve"/>
    </contour>
  </outline>
</glyph>
<glyph name="caron" format="1">
  <advance width="1137"/>
  <unicode hex="00E1"/>
  <unicode hex="0431"/>
  <outline>
    <contour>
      <point x="1130" y="977" type="line"/>
      <point x="1130" y="993"/>
      <point x="1096" y="1001" type="qcurve"/>
      <point x="1061" y="1008"/>
      <point x="1003" y="1012" type="qcurve"/>
      <point x="883" y="1018"/>
      <point x="747" y="1018" type="qcurve" smooth="yes"/>
      <point x="530" y="1018"/>
      <point x="379" y="999" type="qcurve"/>
      <point x="324" y="991"/>
      <point x="283" y="938" type="qcurve" smooth="yes"/>
      <point x="242" y="885"/>
      <point x="229" y="817" type="qcurve" smooth="yes"/>
      <point x="199" y="664"/>
      <point x="166" y="446" type="qcurve"/>
      <point x="131" y="231"/>
      <point x="129" y="119" type="qcurve"/>
      <point x="129" y="45"/>
      <point x="160" y="18" type="qcurve"/>
      <point x="188" y="-8"/>
      <point x="238" y="-8" type="qcurve"/>
      <point x="279" y="-6"/>
      <point x="315" y="0" type="qcurve"/>
      <point x="864" y="0" type="line" smooth="yes"/>
      <point x="936" y="0"/>
      <point x="940" y="86" type="qcurve"/>
      <point x="938" y="125"/>
      <point x="874" y="313" type="qcurve" smooth="yes"/>
      <point x="844" y="399"/>
      <point x="801" y="463" type="qcurve"/>
      <point x="778" y="494"/>
      <point x="754" y="512" type="qcurve"/>
      <point x="729" y="528"/>
      <point x="702" y="528" type="qcurve" smooth="yes"/>
      <point x="682" y="528"/>
      <point x="657" y="516" type="qcurve"/>
      <point x="459" y="412" type="line"/>
      <point x="444" y="418"/>
      <point x="442" y="438" type="qcurve"/>
      <point x="442" y="514"/>
      <point x="465" y="606" type="qcurve"/>
      <point x="483" y="696"/>
      <point x="500" y="758" type="qcurve" smooth="yes"/>
      <point x="512" y="803"/>
      <point x="530" y="840" type="qcurve" smooth="yes"/>
      <point x="547" y="874"/>
      <point x="571" y="899" type="qcurve" smooth="yes"/>
      <point x="618" y="948"/>
      <point x="715" y="948" type="qcurve" smooth="yes"/>
      <point x="758" y="948"/>
      <point x="784" y="922" type="qcurve"/>
      <point x="809" y="893"/>
      <point x="825" y="854" type="qcurve"/>
      <point x="842" y="819"/>
      <point x="862" y="788" type="qcurve" smooth="yes"/>
      <point x="881" y="758"/>
      <point x="909" y="758" type="qcurve" smooth="yes"/>
      <point x="930" y="758"/>
      <point x="967" y="788" type="qcurve" smooth="yes"/>
      <point x="1001" y="815"/>
      <point x="1038" y="852" type="qcurve" smooth="yes"/>
      <point x="1077" y="891"/>
      <point x="1104" y="926" type="qcurve" smooth="yes"/>
      <point x="1130" y="960"/>
      <point x="1130" y="977" type="qcurve"/>
    </contour>
    <contour>
      <point x="528" y="61" type="line"/>
      <point x="483" y="61"/>
      <point x="461" y="113" type="qcurve"/>
      <point x="436" y="162"/>
      <point x="436" y="225" type="qcurve" smooth="yes"/>
      <point x="436" y="285"/>
      <point x="459" y="330" type="qcurve"/>
      <point x="477" y="371"/>
      <point x="516" y="373" type="qcurve"/>
      <point x="563" y="371"/>
      <point x="590" y="315" type="qcurve" smooth="yes"/>
      <point x="616" y="260"/>
      <point x="616" y="192" type="qcurve" smooth="yes"/>
      <point x="616" y="141"/>
      <point x="596" y="102" type="qcurve" smooth="yes"/>
      <point x="575" y="61"/>
      <point x="528" y="61" type="qcurve"/>
    </contour>
  </outline>
</glyph>
<glyph name="lslash" format="1">
  <advance width="999"/>
  <unicode hex="00E3"/>
  <unicode hex="0433"/>
  <outline>
    <contour>
      <point x="465" y="1005" type="line"/>
      <point x="264" y="1010"/>
      <point x="197" y="1012" type="qcurve"/>
      <point x="162" y="1012"/>
      <point x="147" y="989" type="qcurve"/>
      <point x="123" y="932"/>
      <point x="123" y="733" type="qcurve" smooth="yes"/>
      <point x="123" y="395"/>
      <point x="160" y="43" type="qcurve"/>
      <point x="164" y="16"/>
      <point x="180" y="0" type="qcurve" smooth="yes"/>
      <point x="197" y="-18"/>
      <point x="207" y="-18" type="qcurve" smooth="yes"/>
      <point x="256" y="-16"/>
      <point x="403" y="0" type="qcurve"/>
      <point x="438" y="6"/>
      <point x="438" y="43" type="qcurve"/>
      <point x="424" y="258"/>
      <point x="418" y="645" type="qcurve" smooth="yes"/>
      <point x="418" y="707"/>
      <point x="424" y="766" type="qcurve"/>
      <point x="426" y="823"/>
      <point x="438" y="872" type="qcurve"/>
      <point x="448" y="924"/>
      <point x="489" y="936" type="qcurve"/>
      <point x="530" y="944"/>
      <point x="625" y="944" type="qcurve" smooth="yes"/>
      <point x="668" y="944"/>
      <point x="690" y="911" type="qcurve" smooth="yes"/>
      <point x="711" y="879"/>
      <point x="721" y="838" type="qcurve"/>
      <point x="733" y="797"/>
      <point x="741" y="764" type="qcurve" smooth="yes"/>
      <point x="750" y="727"/>
      <point x="766" y="727" type="qcurve" smooth="yes"/>
      <point x="817" y="727"/>
      <point x="854" y="782" type="qcurve"/>
      <point x="971" y="934" type="line" smooth="yes"/>
      <point x="993" y="962"/>
      <point x="993" y="983" type="qcurve" smooth="yes"/>
      <point x="993" y="1018"/>
      <point x="924" y="1020" type="qcurve" smooth="yes"/>
      <point x="903" y="1020"/>
      <point x="752" y="1014" type="qcurve"/>
      <point x="598" y="1005"/>
      <point x="465" y="1005" type="qcurve"/>
    </contour>
  </outline>
</glyph>
<glyph name="Thorn" format="1">
  <advance width="1229"/>
  <unicode hex="00ED"/>
  <unicode hex="043d"/>
  <outline>
    <contour>
      <point x="219" y="960" type="line"/>
      <point x="131" y="590"/>
      <point x="133" y="192" type="qcurve" smooth="yes"/>
      <point x="133" y="68"/>
      <point x="147" y="-23" type="qcurve"/>
      <point x="440" y="6" type="line"/>
      <point x="440" y="217"/>
      <point x="448" y="381" type="qcurve" smooth="yes"/>
      <point x="453" y="463"/>
      <point x="459" y="518" type="qcurve"/>
      <point x="463" y="573"/>
      <point x="469" y="598" type="qcurve"/>
      <point x="758" y="580" type="line"/>
      <point x="758" y="322" type="line" smooth="yes"/>
      <point x="758" y="217"/>
      <point x="768" y="115" type="qcurve"/>
      <point x="774" y="68"/>
      <point x="782" y="35" type="qcurve"/>
      <point x="793" y="4"/>
      <point x="807" y="-4" type="qcurve"/>
      <point x="907" y="-23"/>
      <point x="977" y="-23" type="qcurve"/>
      <point x="1053" y="-25"/>
      <point x="1055" y="49" type="qcurve"/>
      <point x="1044" y="297"/>
      <point x="1038" y="520" type="qcurve"/>
      <point x="1036" y="723"/>
      <point x="1089" y="930" type="qcurve" smooth="yes"/>
      <point x="1094" y="946"/>
      <point x="1096" y="969" type="qcurve"/>
      <point x="1096" y="987"/>
      <point x="1092" y="999" type="qcurve"/>
      <point x="1085" y="1012"/>
      <point x="1071" y="1012" type="qcurve" smooth="yes"/>
      <point x="1069" y="1012"/>
      <point x="1012" y="1005" type="qcurve" smooth="yes"/>
      <point x="954" y="997"/>
      <point x="793" y="973" type="qcurve"/>
      <point x="768" y="887"/>
      <point x="760" y="680" type="qcurve"/>
      <point x="489" y="700" type="line"/>
      <point x="514" y="803"/>
      <point x="522" y="852" type="qcurve" smooth="yes"/>
      <point x="530" y="899"/>
      <point x="530" y="922" type="qcurve" smooth="yes"/>
      <point x="532" y="979"/>
      <point x="481" y="979" type="qcurve"/>
      <point x="405" y="977"/>
      <point x="219" y="960" type="qcurve"/>
    </contour>
  </outline>
</glyph>
<glyph name="scedilla" format="1">
  <advance width="977"/>
  <unicode hex="00FC"/>
  <unicode hex="044c"/>
  <outline>
    <contour>
      <point x="592" y="969" type="line"/>
      <point x="592" y="989"/>
      <point x="575" y="1001" type="qcurve"/>
      <point x="555" y="1012"/>
      <point x="504" y="1012" type="qcurve"/>
      <point x="416" y="1010"/>
      <point x="356" y="999" type="qcurve"/>
      <point x="301" y="991"/>
      <point x="260" y="938" type="qcurve" smooth="yes"/>
      <point x="219" y="885"/>
      <point x="207" y="817" type="qcurve"/>
      <point x="176" y="664"/>
      <point x="143" y="446" type="qcurve"/>
      <point x="109" y="231"/>
      <point x="106" y="119" type="qcurve"/>
      <point x="106" y="45"/>
      <point x="137" y="18" type="qcurve" smooth="yes"/>
      <point x="166" y="-8"/>
      <point x="215" y="-8" type="qcurve"/>
      <point x="256" y="-6"/>
      <point x="293" y="0" type="qcurve"/>
      <point x="842" y="0" type="line" smooth="yes"/>
      <point x="913" y="0"/>
      <point x="917" y="86" type="qcurve"/>
      <point x="915" y="125"/>
      <point x="852" y="313" type="qcurve"/>
      <point x="821" y="399"/>
      <point x="778" y="463" type="qcurve" smooth="yes"/>
      <point x="756" y="494"/>
      <point x="731" y="512" type="qcurve"/>
      <point x="707" y="528"/>
      <point x="680" y="528" type="qcurve" smooth="yes"/>
      <point x="659" y="528"/>
      <point x="635" y="516" type="qcurve" smooth="yes"/>
      <point x="436" y="412" type="line"/>
      <point x="422" y="418"/>
      <point x="420" y="438" type="qcurve"/>
      <point x="420" y="514"/>
      <point x="442" y="606" type="qcurve"/>
      <point x="461" y="696"/>
      <point x="477" y="758" type="qcurve"/>
      <point x="518" y="907"/>
      <point x="592" y="969" type="qcurve"/>
    </contour>
    <contour>
      <point x="506" y="61" type="line"/>
      <point x="461" y="61"/>
      <point x="438" y="113" type="qcurve"/>
      <point x="414" y="162"/>
      <point x="414" y="225" type="qcurve" smooth="yes"/>
      <point x="414" y="285"/>
      <point x="436" y="330" type="qcurve" smooth="yes"/>
      <point x="455" y="371"/>
      <point x="494" y="373" type="qcurve"/>
      <point x="541" y="371"/>
      <point x="567" y="315" type="qcurve"/>
      <point x="594" y="260"/>
      <point x="594" y="192" type="qcurve" smooth="yes"/>
      <point x="594" y="141"/>
      <point x="573" y="102" type="qcurve"/>
      <point x="553" y="61"/>
      <point x="506" y="61" type="qcurve"/>
    </contour>
  </outline>
</glyph>
<glyph name="product" format="1">
  <advance width="1446"/>
  <unicode hex="0161"/>
  <unicode hex="0459"/>
  <outline>
    <contour>
      <point x="817" y="410" type="line"/>
      <point x="760" y="543"/>
      <point x="752" y="926" type="qcurve"/>
      <point x="752" y="989"/>
      <point x="739" y="987" type="qcurve"/>
      <point x="707" y="995"/>
      <point x="635" y="1001" type="qcurve"/>
      <point x="559" y="1003"/>
      <point x="494" y="1003" type="qcurve"/>
      <point x="442" y="1001"/>
      <point x="446" y="936" type="qcurve" smooth="yes"/>
      <point x="451" y="840"/>
      <point x="455" y="760" type="qcurve"/>
      <point x="453" y="709"/>
      <point x="393" y="625" type="qcurve"/>
      <point x="334" y="539"/>
      <point x="254" y="432" type="qcurve" smooth="yes"/>
      <point x="176" y="328"/>
      <point x="117" y="215" type="qcurve"/>
      <point x="53" y="102"/>
      <point x="51" y="0" type="qcurve"/>
      <point x="381" y="0" type="line"/>
      <point x="385" y="14"/>
      <point x="385" y="27" type="qcurve" smooth="yes"/>
      <point x="383" y="72"/>
      <point x="362" y="115" type="qcurve" smooth="yes"/>
      <point x="352" y="137"/>
      <point x="346" y="158" type="qcurve"/>
      <point x="338" y="178"/>
      <point x="338" y="199" type="qcurve" smooth="yes"/>
      <point x="338" y="252"/>
      <point x="360" y="315" type="qcurve" smooth="yes"/>
      <point x="381" y="375"/>
      <point x="410" y="428" type="qcurve" smooth="yes"/>
      <point x="440" y="481"/>
      <point x="469" y="516" type="qcurve" smooth="yes"/>
      <point x="498" y="551"/>
      <point x="516" y="551" type="qcurve"/>
      <point x="530" y="549"/>
      <point x="534" y="522" type="qcurve" smooth="yes"/>
      <point x="598" y="113" type="line" smooth="yes"/>
      <point x="610" y="41"/>
      <point x="635" y="18" type="qcurve"/>
      <point x="659" y="-6"/>
      <point x="698" y="-6" type="qcurve"/>
      <point x="723" y="-2"/>
      <point x="739" y="0" type="qcurve"/>
      <point x="1247" y="0" type="line" smooth="yes"/>
      <point x="1313" y="0"/>
      <point x="1315" y="84" type="qcurve"/>
      <point x="1311" y="422"/>
      <point x="1085" y="518" type="qcurve"/>
      <point x="1014" y="514"/>
      <point x="934" y="469" type="qcurve" smooth="yes"/>
      <point x="897" y="448"/>
      <point x="864" y="432" type="qcurve"/>
      <point x="833" y="414"/>
      <point x="817" y="410" type="qcurve"/>
    </contour>
    <contour>
      <point x="944" y="66" type="line"/>
      <point x="895" y="72"/>
      <point x="870" y="121" type="qcurve" smooth="yes"/>
      <point x="846" y="170"/>
      <point x="846" y="231" type="qcurve" smooth="yes"/>
      <point x="846" y="289"/>
      <point x="870" y="334" type="qcurve"/>
      <point x="893" y="375"/>
      <point x="938" y="377" type="qcurve"/>
      <point x="981" y="375"/>
      <point x="1010" y="322" type="qcurve"/>
      <point x="1034" y="266"/>
      <point x="1034" y="199" type="qcurve" smooth="yes"/>
      <point x="1034" y="145"/>
      <point x="1014" y="106" type="qcurve" smooth="yes"/>
      <point x="993" y="66"/>
      <point x="944" y="66" type="qcurve"/>
    </contour>
  </outline>
</glyph>
<glyph name="Omega" format="1">
  <advance width="1253"/>
  <unicode hex="0178"/>
  <unicode hex="045f"/>
  <outline>
    <contour>
      <point x="219" y="960" type="line"/>
      <point x="131" y="590"/>
      <point x="133" y="192" type="qcurve" smooth="yes"/>
      <point x="133" y="68"/>
      <point x="147" y="-23" type="qcurve"/>
      <point x="528" y="-23" type="line"/>
      <point x="580" y="-262"/>
      <point x="580" y="-369" type="qcurve" smooth="yes"/>
      <point x="580" y="-616" type="line"/>
      <point x="577" y="-803"/>
      <point x="565" y="-983" type="qcurve"/>
      <point x="645" y="-1012" type="line"/>
      <point x="729" y="-541"/>
      <point x="735" y="-164" type="qcurve" smooth="yes"/>
      <point x="735" y="-127"/>
      <point x="733" y="-86" type="qcurve"/>
      <point x="727" y="-47"/>
      <point x="713" y="-23" type="qcurve"/>
      <point x="979" y="-23" type="line" smooth="yes"/>
      <point x="1014" y="-23"/>
      <point x="1034" y="4" type="qcurve" smooth="yes"/>
      <point x="1053" y="31"/>
      <point x="1053" y="98" type="qcurve" smooth="yes"/>
      <point x="1053" y="252"/>
      <point x="1046" y="381" type="qcurve" smooth="yes"/>
      <point x="1042" y="442"/>
      <point x="1042" y="483" type="qcurve"/>
      <point x="1038" y="524"/>
      <point x="1038" y="530" type="qcurve" smooth="yes"/>
      <point x="1038" y="731"/>
      <point x="1092" y="940" type="qcurve" smooth="yes"/>
      <point x="1096" y="956"/>
      <point x="1096" y="971" type="qcurve" smooth="yes"/>
      <point x="1096" y="987"/>
      <point x="1092" y="999" type="qcurve"/>
      <point x="1085" y="1012"/>
      <point x="1071" y="1012" type="qcurve" smooth="yes"/>
      <point x="1046" y="1012"/>
      <point x="793" y="973" type="qcurve"/>
      <point x="782" y="940"/>
      <point x="772" y="819" type="qcurve"/>
      <point x="758" y="696"/>
      <point x="758" y="453" type="qcurve" smooth="yes"/>
      <point x="758" y="356"/>
      <point x="762" y="246" type="qcurve"/>
      <point x="764" y="133"/>
      <point x="772" y="68" type="qcurve"/>
      <point x="440" y="68" type="line"/>
      <point x="442" y="451"/>
      <point x="485" y="655" type="qcurve"/>
      <point x="506" y="760"/>
      <point x="518" y="825" type="qcurve" smooth="yes"/>
      <point x="530" y="889"/>
      <point x="530" y="922" type="qcurve" smooth="yes"/>
      <point x="530" y="979"/>
      <point x="481" y="979" type="qcurve"/>
      <point x="405" y="977"/>
      <point x="219" y="960" type="qcurve"/>
    </contour>
  </outline>
</glyph>
<glyph name="cent" format="1">
  <advance width="1194"/>
  <unicode hex="201E"/>
  <outline>
    <contour>
      <point x="70" y="2" type="line"/>
      <point x="117" y="31"/>
      <point x="162" y="31" type="qcurve" smooth="yes"/>
      <point x="272" y="29"/>
      <point x="276" y="-111" type="qcurve"/>
      <point x="276" y="-201"/>
      <point x="174" y="-360" type="qcurve"/>
      <point x="207" y="-389" type="line"/>
      <point x="510" y="-260"/>
      <point x="516" y="2" type="qcurve"/>
      <point x="514" y="106"/>
      <point x="440" y="160" type="qcurve" smooth="yes"/>
      <point x="405" y="186"/>
      <point x="362" y="199" type="qcurve" smooth="yes"/>
      <point x="319" y="211"/>
      <point x="274" y="211" type="qcurve" smooth="yes"/>
      <point x="180" y="209"/>
      <point x="115" y="174" type="qcurve" smooth="yes"/>
      <point x="51" y="139"/>
      <point x="10" y="84" type="qcurve"/>
    </contour>
    <contour>
      <point x="702" y="2" type="line"/>
      <point x="750" y="31"/>
      <point x="795" y="31" type="qcurve" smooth="yes"/>
      <point x="905" y="29"/>
      <point x="909" y="-111" type="qcurve"/>
      <point x="909" y="-201"/>
      <point x="807" y="-360" type="qcurve"/>
      <point x="840" y="-389" type="line"/>
      <point x="1143" y="-260"/>
      <point x="1149" y="2" type="qcurve"/>
      <point x="1147" y="106"/>
      <point x="1073" y="160" type="qcurve" smooth="yes"/>
      <point x="1038" y="186"/>
      <point x="995" y="199" type="qcurve" smooth="yes"/>
      <point x="952" y="211"/>
      <point x="907" y="211" type="qcurve" smooth="yes"/>
      <point x="813" y="209"/>
      <point x="747" y="174" type="qcurve"/>
      <point x="684" y="139"/>
      <point x="643" y="84" type="qcurve"/>
    </contour>
  </outline>
</glyph>
<glyph name="bullet" format="1">
  <advance width="1939"/>
  <unicode hex="2021"/>
  <outline>
    <contour>
      <point x="1763" y="311" type="line"/>
      <point x="1130" y="276" type="line"/>
      <point x="1130" y="276" type="line"/>
      <point x="1130" y="692" type="line"/>
      <point x="1130" y="692" type="line"/>
      <point x="1763" y="659" type="line"/>
      <point x="1763" y="659" type="line"/>
      <point x="1763" y="995" type="line"/>
      <point x="1763" y="995" type="line"/>
      <point x="1139" y="952" type="line"/>
      <point x="1139" y="952" type="line"/>
      <point x="1169" y="1427" type="line"/>
      <point x="774" y="1427" type="line"/>
      <point x="807" y="952" type="line"/>
      <point x="807" y="952" type="line"/>
      <point x="182" y="995" type="line"/>
      <point x="182" y="995" type="line"/>
      <point x="182" y="659" type="line"/>
      <point x="813" y="659" type="line"/>
      <point x="813" y="276" type="line"/>
      <point x="813" y="276" type="line"/>
      <point x="182" y="311" type="line"/>
      <point x="182" y="311" type="line"/>
      <point x="182" y="-25" type="line"/>
      <point x="182" y="-25" type="line"/>
      <point x="813" y="35" type="line"/>
      <point x="813" y="35" type="line"/>
      <point x="813" y="-1427" type="line"/>
      <point x="1169" y="-1427" type="line"/>
      <point x="1169" y="35" type="line"/>
      <point x="1169" y="35" type="line"/>
      <point x="1763" y="-25" type="line"/>
      <point x="1763" y="-25" type="line"/>
      <point x="1763" y="311" type="line"/>
    </contour>
  </outline>
</glyph>
<glyph name="sterling" format="1">
  <advance width="1843"/>
  <unicode hex="2026"/>
  <outline>
    <contour>
      <point x="356" y="342" type="line"/>
      <point x="170" y="342"/>
      <point x="168" y="156" type="qcurve" smooth="yes"/>
      <point x="166" y="-27"/>
      <point x="348" y="-25" type="qcurve"/>
      <point x="532" y="-20"/>
      <point x="534" y="158" type="qcurve"/>
      <point x="530" y="340"/>
      <point x="356" y="342" type="qcurve"/>
    </contour>
    <contour>
      <point x="928" y="342" type="line"/>
      <point x="741" y="342"/>
      <point x="739" y="156" type="qcurve" smooth="yes"/>
      <point x="737" y="-27"/>
      <point x="919" y="-25" type="qcurve"/>
      <point x="1104" y="-20"/>
      <point x="1106" y="158" type="qcurve"/>
      <point x="1102" y="340"/>
      <point x="928" y="342" type="qcurve"/>
    </contour>
    <contour>
      <point x="1499" y="342" type="line"/>
      <point x="1313" y="342"/>
      <point x="1311" y="156" type="qcurve" smooth="yes"/>
      <point x="1309" y="-27"/>
      <point x="1491" y="-25" type="qcurve"/>
      <point x="1675" y="-20"/>
      <point x="1677" y="158" type="qcurve"/>
      <point x="1673" y="340"/>
      <point x="1499" y="342" type="qcurve"/>
    </contour>
  </outline>
</glyph>
<glyph name="summation" format="1">
  <advance width="1636"/>
  <unicode hex="2122"/>
  <outline>
    <contour>
      <point x="213" y="1399" type="line"/>
      <point x="219" y="1413" type="line"/>
      <point x="211" y="1468"/>
      <point x="211" y="1520" type="qcurve" smooth="yes"/>
      <point x="211" y="1591"/>
      <point x="223" y="1667" type="qcurve"/>
      <point x="227" y="1708"/>
      <point x="250" y="1722" type="qcurve"/>
      <point x="270" y="1730"/>
      <point x="324" y="1730" type="qcurve" smooth="yes"/>
      <point x="336" y="1730"/>
      <point x="362" y="1732" type="qcurve"/>
      <point x="399" y="1732"/>
      <point x="410" y="1706" type="qcurve"/>
      <point x="403" y="1663"/>
      <point x="399" y="1522" type="qcurve"/>
      <point x="393" y="1380"/>
      <point x="393" y="1329" type="qcurve" smooth="yes"/>
      <point x="393" y="1253"/>
      <point x="403" y="1180" type="qcurve"/>
      <point x="410" y="1145"/>
      <point x="418" y="1122" type="qcurve" smooth="yes"/>
      <point x="426" y="1098"/>
      <point x="438" y="1098" type="qcurve" smooth="yes"/>
      <point x="483" y="1100"/>
      <point x="575" y="1110" type="qcurve"/>
      <point x="592" y="1122"/>
      <point x="592" y="1145" type="qcurve" smooth="yes"/>
      <point x="586" y="1296"/>
      <point x="584" y="1462" type="qcurve" smooth="yes"/>
      <point x="582" y="1565"/>
      <point x="596" y="1642" type="qcurve"/>
      <point x="608" y="1720"/>
      <point x="655" y="1722" type="qcurve"/>
      <point x="700" y="1720"/>
      <point x="743" y="1720" type="qcurve" smooth="yes"/>
      <point x="799" y="1720"/>
      <point x="825" y="1708" type="qcurve"/>
      <point x="852" y="1694"/>
      <point x="852" y="1655" type="qcurve" smooth="yes"/>
      <point x="852" y="1595"/>
      <point x="819" y="1526" type="qcurve"/>
      <point x="786" y="1454"/>
      <point x="745" y="1384" type="qcurve" smooth="yes"/>
      <point x="704" y="1315"/>
      <point x="674" y="1261" type="qcurve"/>
      <point x="639" y="1206"/>
      <point x="639" y="1173" type="qcurve" smooth="yes"/>
      <point x="639" y="1120"/>
      <point x="641" y="1102" type="qcurve"/>
      <point x="838" y="1114" type="line"/>
      <point x="836" y="1145" type="line"/>
      <point x="825" y="1161"/>
      <point x="811" y="1194" type="qcurve"/>
      <point x="793" y="1227"/>
      <point x="793" y="1257" type="qcurve" smooth="yes"/>
      <point x="793" y="1319"/>
      <point x="813" y="1374" type="qcurve"/>
      <point x="829" y="1427"/>
      <point x="852" y="1466" type="qcurve"/>
      <point x="905" y="1548"/>
      <point x="922" y="1550" type="qcurve"/>
      <point x="936" y="1548"/>
      <point x="948" y="1513" type="qcurve" smooth="yes"/>
      <point x="960" y="1477"/>
      <point x="971" y="1419" type="qcurve" smooth="yes"/>
      <point x="993" y="1298"/>
      <point x="995" y="1192" type="qcurve"/>
      <point x="995" y="1126"/>
      <point x="991" y="1102" type="qcurve"/>
      <point x="1190" y="1114" type="line"/>
      <point x="1200" y="1237"/>
      <point x="1239" y="1329" type="qcurve" smooth="yes"/>
      <point x="1259" y="1378"/>
      <point x="1278" y="1425" type="qcurve" smooth="yes"/>
      <point x="1296" y="1470"/>
      <point x="1309" y="1522" type="qcurve"/>
      <point x="1321" y="1522" type="line"/>
      <point x="1335" y="1466"/>
      <point x="1356" y="1360" type="qcurve"/>
      <point x="1376" y="1251"/>
      <point x="1415" y="1102" type="qcurve"/>
      <point x="1612" y="1112" type="line"/>
      <point x="1517" y="1415"/>
      <point x="1472" y="1778" type="qcurve"/>
      <point x="1270" y="1767" type="line"/>
      <point x="1286" y="1726"/>
      <point x="1288" y="1653" type="qcurve"/>
      <point x="1286" y="1567"/>
      <point x="1247" y="1479" type="qcurve" smooth="yes"/>
      <point x="1229" y="1438"/>
      <point x="1212" y="1411" type="qcurve" smooth="yes"/>
      <point x="1194" y="1382"/>
      <point x="1182" y="1382" type="qcurve"/>
      <point x="1161" y="1384"/>
      <point x="1141" y="1450" type="qcurve" smooth="yes"/>
      <point x="1118" y="1528"/>
      <point x="1106" y="1628" type="qcurve"/>
      <point x="1092" y="1726"/>
      <point x="1079" y="1778" type="qcurve"/>
      <point x="956" y="1767"/>
      <point x="928" y="1767" type="qcurve" smooth="yes"/>
      <point x="471" y="1778"/>
      <point x="184" y="1784" type="qcurve" smooth="yes"/>
      <point x="59" y="1786"/>
      <point x="45" y="1681" type="qcurve" smooth="yes"/>
      <point x="35" y="1601"/>
      <point x="35" y="1517" type="qcurve" smooth="yes"/>
      <point x="35" y="1458"/>
      <point x="43" y="1421" type="qcurve"/>
      <point x="49" y="1380"/>
      <point x="70" y="1374" type="qcurve"/>
    </contour>
  </outline>
</glyph>
